<mxfile host="app.diagrams.net" modified="2021-11-08T02:39:16.825Z" agent="5.0 (Windows NT 10.0; Win64; x64) AppleWebKit/537.36 (KHTML, like Gecko) Chrome/94.0.4606.81 Safari/537.36 OPR/80.0.4170.63" etag="zfTBJUEE-zO_QkjgibNi" version="15.5.2" type="github" pages="3">
  <diagram id="C5RBs43oDa-KdzZeNtuy" name="Page-1">
    <mxGraphModel dx="1382" dy="795" grid="0" gridSize="10" guides="1" tooltips="1" connect="1" arrows="1" fold="1" page="0" pageScale="1" pageWidth="827" pageHeight="1169" math="0" shadow="0">
      <root>
        <mxCell id="WIyWlLk6GJQsqaUBKTNV-0" />
        <mxCell id="WIyWlLk6GJQsqaUBKTNV-1" parent="WIyWlLk6GJQsqaUBKTNV-0" />
        <mxCell id="OYclKMu_95USPac68Z9W-0" value="&lt;font style=&quot;font-size: 14px&quot; color=&quot;#fcfcfc&quot; face=&quot;Poppins&quot; data-font-src=&quot;https://fonts.googleapis.com/css?family=Poppins&quot;&gt;&lt;b&gt;START&lt;/b&gt;&lt;/font&gt;" style="rounded=1;whiteSpace=wrap;html=1;hachureGap=4;pointerEvents=0;fillColor=#4EC2CF;strokeColor=none;shadow=0;glass=0;sketch=0;gradientDirection=north;gradientColor=#89E3D2;" parent="WIyWlLk6GJQsqaUBKTNV-1" vertex="1">
          <mxGeometry x="347" y="100" width="143.5" height="30" as="geometry" />
        </mxCell>
        <mxCell id="5vHS8GP_uj2Ly462BwhH-0" value="" style="endArrow=blockThin;html=1;startSize=14;endSize=14;sourcePerimeterSpacing=8;targetPerimeterSpacing=8;strokeColor=#B3B3B3;rounded=1;strokeWidth=1;endFill=1;opacity=60;" parent="WIyWlLk6GJQsqaUBKTNV-1" edge="1">
          <mxGeometry width="50" height="50" relative="1" as="geometry">
            <mxPoint x="418.4099999999999" y="130" as="sourcePoint" />
            <mxPoint x="418.4099999999999" y="170" as="targetPoint" />
          </mxGeometry>
        </mxCell>
        <mxCell id="G0NYwOw1oyBNTWF5aXl_-0" value="&lt;font face=&quot;Poppins&quot; style=&quot;font-size: 9px&quot;&gt;&amp;nbsp;md-links &amp;lt;path&amp;gt; [option]&lt;br&gt;&lt;br&gt;&lt;/font&gt;" style="shape=parallelogram;perimeter=parallelogramPerimeter;whiteSpace=wrap;html=1;fixedSize=1;shadow=0;glass=1;sketch=0;hachureGap=4;pointerEvents=0;fillColor=#CCFFE6;strokeColor=none;rounded=1;arcSize=22;align=center;gradientColor=#ffffff;" parent="WIyWlLk6GJQsqaUBKTNV-1" vertex="1">
          <mxGeometry x="330" y="170" width="170" height="50" as="geometry" />
        </mxCell>
        <mxCell id="-IG1O3hMklvKj96a-HAn-0" value="&lt;font face=&quot;Poppins&quot; data-font-src=&quot;https://fonts.googleapis.com/css?family=Poppins&quot; style=&quot;font-size: 9px&quot;&gt;&lt;font&gt;Are there any&lt;br&gt;&lt;/font&gt;&lt;font&gt;options?&lt;/font&gt;&lt;/font&gt;" style="rhombus;whiteSpace=wrap;html=1;rounded=1;shadow=0;glass=0;sketch=0;hachureGap=4;pointerEvents=0;strokeColor=none;fillColor=default;gradientDirection=north;arcSize=8;gradientColor=#FFF2CC;" parent="WIyWlLk6GJQsqaUBKTNV-1" vertex="1">
          <mxGeometry x="375" y="260" width="87.5" height="70" as="geometry" />
        </mxCell>
        <mxCell id="-IG1O3hMklvKj96a-HAn-2" value="" style="endArrow=blockThin;html=1;startSize=14;endSize=14;sourcePerimeterSpacing=8;targetPerimeterSpacing=8;strokeColor=#B3B3B3;rounded=1;strokeWidth=1;endFill=1;opacity=60;" parent="WIyWlLk6GJQsqaUBKTNV-1" edge="1">
          <mxGeometry width="50" height="50" relative="1" as="geometry">
            <mxPoint x="418.54999999999995" y="220" as="sourcePoint" />
            <mxPoint x="418.54999999999995" y="260" as="targetPoint" />
          </mxGeometry>
        </mxCell>
        <mxCell id="-IG1O3hMklvKj96a-HAn-3" value="&lt;font style=&quot;font-size: 9px&quot;&gt;no&lt;/font&gt;" style="endArrow=blockThin;html=1;startSize=14;endSize=14;sourcePerimeterSpacing=8;targetPerimeterSpacing=8;strokeColor=#B3B3B3;rounded=1;strokeWidth=1;endFill=1;opacity=60;fontFamily=Poppins;fontSource=https%3A%2F%2Ffonts.googleapis.com%2Fcss%3Ffamily%3DPoppins;verticalAlign=middle;labelPosition=center;verticalLabelPosition=middle;align=center;" parent="WIyWlLk6GJQsqaUBKTNV-1" edge="1">
          <mxGeometry x="-0.1657" width="50" height="50" relative="1" as="geometry">
            <mxPoint x="462.49999999999955" y="294.8" as="sourcePoint" />
            <mxPoint x="670" y="295" as="targetPoint" />
            <mxPoint as="offset" />
            <Array as="points" />
          </mxGeometry>
        </mxCell>
        <mxCell id="-IG1O3hMklvKj96a-HAn-4" value="&lt;font style=&quot;font-size: 9px&quot;&gt;Return an array showing href, text, file&lt;/font&gt;" style="rounded=1;whiteSpace=wrap;html=1;shadow=0;glass=0;sketch=0;hachureGap=4;pointerEvents=0;fontFamily=Poppins;fontSource=https%3A%2F%2Ffonts.googleapis.com%2Fcss%3Ffamily%3DPoppins;strokeColor=none;fillColor=#FFFFFF;gradientDirection=north;gradientColor=#99CCFF;" parent="WIyWlLk6GJQsqaUBKTNV-1" vertex="1">
          <mxGeometry x="670" y="275" width="120" height="40" as="geometry" />
        </mxCell>
        <mxCell id="DyFku1vf3bDfi78aZa8K-0" value="" style="endArrow=blockThin;html=1;fontFamily=Poppins;fontSource=https%3A%2F%2Ffonts.googleapis.com%2Fcss%3Ffamily%3DPoppins;startSize=10;endSize=14;sourcePerimeterSpacing=7;targetPerimeterSpacing=7;strokeColor=#B3B3B3;strokeWidth=1;align=right;verticalAlign=middle;opacity=60;endFill=1;entryX=0.5;entryY=0;entryDx=0;entryDy=0;" parent="WIyWlLk6GJQsqaUBKTNV-1" target="DyFku1vf3bDfi78aZa8K-17" edge="1">
          <mxGeometry width="50" height="50" relative="1" as="geometry">
            <mxPoint x="429.38" y="390" as="sourcePoint" />
            <mxPoint x="492.38" y="430" as="targetPoint" />
            <Array as="points">
              <mxPoint x="500" y="390" />
              <mxPoint x="535" y="390" />
            </Array>
          </mxGeometry>
        </mxCell>
        <mxCell id="DyFku1vf3bDfi78aZa8K-1" value="" style="endArrow=blockThin;html=1;fontFamily=Poppins;fontSource=https%3A%2F%2Ffonts.googleapis.com%2Fcss%3Ffamily%3DPoppins;startSize=10;endSize=14;sourcePerimeterSpacing=7;targetPerimeterSpacing=7;strokeColor=#B3B3B3;strokeWidth=1;align=right;verticalAlign=middle;opacity=60;endFill=1;entryX=0.508;entryY=0.028;entryDx=0;entryDy=0;entryPerimeter=0;" parent="WIyWlLk6GJQsqaUBKTNV-1" target="DyFku1vf3bDfi78aZa8K-15" edge="1">
          <mxGeometry width="50" height="50" relative="1" as="geometry">
            <mxPoint x="480" y="390" as="sourcePoint" />
            <mxPoint x="631" y="430" as="targetPoint" />
            <Array as="points">
              <mxPoint x="650" y="390" />
            </Array>
          </mxGeometry>
        </mxCell>
        <mxCell id="DyFku1vf3bDfi78aZa8K-2" value="" style="endArrow=blockThin;html=1;fontFamily=Poppins;fontSource=https%3A%2F%2Ffonts.googleapis.com%2Fcss%3Ffamily%3DPoppins;startSize=10;endSize=14;sourcePerimeterSpacing=7;targetPerimeterSpacing=7;strokeColor=#B3B3B3;strokeWidth=1;align=right;verticalAlign=middle;opacity=60;endFill=1;" parent="WIyWlLk6GJQsqaUBKTNV-1" edge="1">
          <mxGeometry width="50" height="50" relative="1" as="geometry">
            <mxPoint x="400" y="390" as="sourcePoint" />
            <mxPoint x="307.19" y="430" as="targetPoint" />
            <Array as="points">
              <mxPoint x="307.06" y="390" />
            </Array>
          </mxGeometry>
        </mxCell>
        <mxCell id="DyFku1vf3bDfi78aZa8K-4" value="" style="endArrow=blockThin;html=1;fontFamily=Poppins;fontSource=https%3A%2F%2Ffonts.googleapis.com%2Fcss%3Ffamily%3DPoppins;startSize=10;endSize=14;sourcePerimeterSpacing=7;targetPerimeterSpacing=7;strokeColor=#B3B3B3;strokeWidth=1;align=right;verticalAlign=middle;opacity=60;endFill=1;entryX=0.545;entryY=0;entryDx=0;entryDy=0;entryPerimeter=0;" parent="WIyWlLk6GJQsqaUBKTNV-1" target="DyFku1vf3bDfi78aZa8K-19" edge="1">
          <mxGeometry width="50" height="50" relative="1" as="geometry">
            <mxPoint x="410" y="390" as="sourcePoint" />
            <mxPoint x="206.88" y="430" as="targetPoint" />
            <Array as="points">
              <mxPoint x="190" y="390" />
            </Array>
          </mxGeometry>
        </mxCell>
        <mxCell id="DyFku1vf3bDfi78aZa8K-7" value="" style="endArrow=none;html=1;startSize=14;endSize=14;sourcePerimeterSpacing=8;targetPerimeterSpacing=8;strokeColor=#B3B3B3;opacity=60;" parent="WIyWlLk6GJQsqaUBKTNV-1" edge="1">
          <mxGeometry width="50" height="50" relative="1" as="geometry">
            <mxPoint x="409" y="390" as="sourcePoint" />
            <mxPoint x="419" y="370" as="targetPoint" />
            <Array as="points">
              <mxPoint x="419" y="390" />
            </Array>
          </mxGeometry>
        </mxCell>
        <mxCell id="DyFku1vf3bDfi78aZa8K-8" value="" style="endArrow=none;html=1;startSize=14;endSize=14;sourcePerimeterSpacing=8;targetPerimeterSpacing=8;strokeColor=#B3B3B3;opacity=60;" parent="WIyWlLk6GJQsqaUBKTNV-1" edge="1">
          <mxGeometry width="50" height="50" relative="1" as="geometry">
            <mxPoint x="431" y="390" as="sourcePoint" />
            <mxPoint x="420" y="370" as="targetPoint" />
            <Array as="points">
              <mxPoint x="420" y="390" />
            </Array>
          </mxGeometry>
        </mxCell>
        <mxCell id="DyFku1vf3bDfi78aZa8K-10" value="" style="endArrow=none;html=1;startSize=14;endSize=14;sourcePerimeterSpacing=8;targetPerimeterSpacing=8;entryX=0.5;entryY=1;entryDx=0;entryDy=0;strokeColor=#B3B3B3;opacity=60;" parent="WIyWlLk6GJQsqaUBKTNV-1" source="DyFku1vf3bDfi78aZa8K-11" target="-IG1O3hMklvKj96a-HAn-0" edge="1">
          <mxGeometry width="50" height="50" relative="1" as="geometry">
            <mxPoint x="419" y="350" as="sourcePoint" />
            <mxPoint x="450" y="330" as="targetPoint" />
          </mxGeometry>
        </mxCell>
        <mxCell id="DyFku1vf3bDfi78aZa8K-11" value="&lt;font style=&quot;font-size: 9px&quot;&gt;yes&lt;/font&gt;" style="text;html=1;strokeColor=none;fillColor=none;align=center;verticalAlign=middle;whiteSpace=wrap;rounded=0;hachureGap=4;pointerEvents=0;" parent="WIyWlLk6GJQsqaUBKTNV-1" vertex="1">
          <mxGeometry x="408.13" y="360" width="21.25" as="geometry" />
        </mxCell>
        <mxCell id="DyFku1vf3bDfi78aZa8K-15" value="&lt;font face=&quot;Poppins&quot; style=&quot;font-size: 9px&quot;&gt;other &lt;br&gt;option &lt;br&gt;&lt;br&gt;&lt;/font&gt;" style="shape=parallelogram;perimeter=parallelogramPerimeter;whiteSpace=wrap;html=1;fixedSize=1;shadow=0;glass=1;sketch=0;hachureGap=4;pointerEvents=0;fillColor=#CCFFE6;strokeColor=none;rounded=1;arcSize=22;align=center;gradientColor=#ffffff;" parent="WIyWlLk6GJQsqaUBKTNV-1" vertex="1">
          <mxGeometry x="595" y="430" width="110" height="50" as="geometry" />
        </mxCell>
        <mxCell id="DyFku1vf3bDfi78aZa8K-17" value="&lt;span style=&quot;font-family: &amp;#34;poppins&amp;#34; ; font-size: 9px&quot;&gt;option&lt;/span&gt;&lt;br style=&quot;font-family: &amp;#34;poppins&amp;#34; ; font-size: 9px&quot;&gt;&lt;span style=&quot;font-family: &amp;#34;poppins&amp;#34; ; font-size: 9px&quot;&gt;--help or --h&lt;/span&gt;&lt;font face=&quot;Poppins&quot; style=&quot;font-size: 9px&quot;&gt;&lt;br&gt;&lt;/font&gt;" style="shape=parallelogram;perimeter=parallelogramPerimeter;whiteSpace=wrap;html=1;fixedSize=1;shadow=0;glass=1;sketch=0;hachureGap=4;pointerEvents=0;fillColor=#CCFFE6;strokeColor=none;rounded=1;arcSize=22;align=center;gradientColor=#ffffff;" parent="WIyWlLk6GJQsqaUBKTNV-1" vertex="1">
          <mxGeometry x="480" y="430" width="110" height="50" as="geometry" />
        </mxCell>
        <mxCell id="DyFku1vf3bDfi78aZa8K-18" value="&lt;font face=&quot;Poppins&quot; style=&quot;font-size: 9px&quot;&gt;option&lt;br&gt;--stats or --s&lt;br&gt;&lt;/font&gt;" style="shape=parallelogram;perimeter=parallelogramPerimeter;whiteSpace=wrap;html=1;fixedSize=1;shadow=0;glass=1;sketch=0;hachureGap=4;pointerEvents=0;fillColor=#CCFFE6;strokeColor=none;rounded=1;arcSize=22;align=center;gradientColor=#ffffff;" parent="WIyWlLk6GJQsqaUBKTNV-1" vertex="1">
          <mxGeometry x="250" y="430" width="110" height="50" as="geometry" />
        </mxCell>
        <mxCell id="DyFku1vf3bDfi78aZa8K-19" value="&lt;font face=&quot;Poppins&quot; style=&quot;font-size: 9px&quot;&gt;option&lt;br&gt;--validate or --v&lt;br&gt;&lt;/font&gt;" style="shape=parallelogram;perimeter=parallelogramPerimeter;whiteSpace=wrap;html=1;fixedSize=1;shadow=0;glass=1;sketch=0;hachureGap=4;pointerEvents=0;fillColor=#CCFFE6;strokeColor=none;rounded=1;arcSize=22;align=center;gradientColor=#ffffff;" parent="WIyWlLk6GJQsqaUBKTNV-1" vertex="1">
          <mxGeometry x="130" y="430" width="110" height="50" as="geometry" />
        </mxCell>
        <mxCell id="DyFku1vf3bDfi78aZa8K-21" value="&lt;font style=&quot;font-size: 8px ; line-height: 0.8&quot;&gt;Show&amp;nbsp; invalid &lt;br&gt;command message&lt;br&gt;&amp;amp; help menu&lt;/font&gt;" style="rounded=1;whiteSpace=wrap;html=1;shadow=0;glass=0;sketch=0;hachureGap=4;pointerEvents=0;fontFamily=Poppins;fontSource=https%3A%2F%2Ffonts.googleapis.com%2Fcss%3Ffamily%3DPoppins;strokeColor=none;fillColor=#FFFFFF;gradientDirection=north;gradientColor=#99CCFF;" parent="WIyWlLk6GJQsqaUBKTNV-1" vertex="1">
          <mxGeometry x="600" y="520" width="100" height="40" as="geometry" />
        </mxCell>
        <mxCell id="DyFku1vf3bDfi78aZa8K-22" value="&lt;span style=&quot;font-size: 10px&quot;&gt;Show help menu&lt;/span&gt;&lt;span style=&quot;font-size: 10px&quot;&gt;&lt;br&gt;&lt;/span&gt;" style="rounded=1;whiteSpace=wrap;html=1;shadow=0;glass=0;sketch=0;hachureGap=4;pointerEvents=0;fontFamily=Poppins;fontSource=https%3A%2F%2Ffonts.googleapis.com%2Fcss%3Ffamily%3DPoppins;strokeColor=none;fillColor=#FFFFFF;gradientDirection=north;gradientColor=#99CCFF;" parent="WIyWlLk6GJQsqaUBKTNV-1" vertex="1">
          <mxGeometry x="490" y="520" width="100" height="40" as="geometry" />
        </mxCell>
        <mxCell id="DyFku1vf3bDfi78aZa8K-23" value="&lt;span style=&quot;font-size: 10px&quot;&gt;Show total &amp;amp; unique links&lt;br&gt;&lt;/span&gt;" style="rounded=1;whiteSpace=wrap;html=1;shadow=0;glass=0;sketch=0;hachureGap=4;pointerEvents=0;fontFamily=Poppins;fontSource=https%3A%2F%2Ffonts.googleapis.com%2Fcss%3Ffamily%3DPoppins;strokeColor=none;fillColor=#FFFFFF;gradientDirection=north;gradientColor=#99CCFF;" parent="WIyWlLk6GJQsqaUBKTNV-1" vertex="1">
          <mxGeometry x="260" y="520" width="100" height="40" as="geometry" />
        </mxCell>
        <mxCell id="DyFku1vf3bDfi78aZa8K-24" value="&lt;font style=&quot;font-size: 9px&quot;&gt;Show href, file, status, message &amp;amp; text&lt;/font&gt;" style="rounded=1;whiteSpace=wrap;html=1;shadow=0;glass=0;sketch=0;hachureGap=4;pointerEvents=0;fontFamily=Poppins;fontSource=https%3A%2F%2Ffonts.googleapis.com%2Fcss%3Ffamily%3DPoppins;strokeColor=none;fillColor=#FFFFFF;gradientDirection=north;gradientColor=#99CCFF;" parent="WIyWlLk6GJQsqaUBKTNV-1" vertex="1">
          <mxGeometry x="140" y="520" width="100" height="40" as="geometry" />
        </mxCell>
        <mxCell id="DyFku1vf3bDfi78aZa8K-25" value="" style="endArrow=blockThin;html=1;startSize=14;endSize=14;sourcePerimeterSpacing=8;targetPerimeterSpacing=8;strokeColor=#B3B3B3;rounded=1;strokeWidth=1;endFill=1;opacity=60;" parent="WIyWlLk6GJQsqaUBKTNV-1" edge="1">
          <mxGeometry width="50" height="50" relative="1" as="geometry">
            <mxPoint x="309.99999999999966" y="479.9999999999999" as="sourcePoint" />
            <mxPoint x="309.99999999999966" y="519.9999999999999" as="targetPoint" />
          </mxGeometry>
        </mxCell>
        <mxCell id="DyFku1vf3bDfi78aZa8K-26" value="" style="endArrow=blockThin;html=1;startSize=14;endSize=14;sourcePerimeterSpacing=8;targetPerimeterSpacing=8;strokeColor=#B3B3B3;rounded=1;strokeWidth=1;endFill=1;opacity=60;" parent="WIyWlLk6GJQsqaUBKTNV-1" edge="1">
          <mxGeometry width="50" height="50" relative="1" as="geometry">
            <mxPoint x="189.99999999999986" y="480" as="sourcePoint" />
            <mxPoint x="189.99999999999986" y="520" as="targetPoint" />
          </mxGeometry>
        </mxCell>
        <mxCell id="DyFku1vf3bDfi78aZa8K-29" value="" style="endArrow=blockThin;html=1;startSize=14;endSize=14;sourcePerimeterSpacing=8;targetPerimeterSpacing=8;strokeColor=#B3B3B3;rounded=1;strokeWidth=1;endFill=1;opacity=60;" parent="WIyWlLk6GJQsqaUBKTNV-1" edge="1">
          <mxGeometry width="50" height="50" relative="1" as="geometry">
            <mxPoint x="534.8799999999998" y="479.9999999999999" as="sourcePoint" />
            <mxPoint x="534.8799999999998" y="519.9999999999999" as="targetPoint" />
          </mxGeometry>
        </mxCell>
        <mxCell id="DyFku1vf3bDfi78aZa8K-30" value="" style="endArrow=blockThin;html=1;startSize=14;endSize=14;sourcePerimeterSpacing=8;targetPerimeterSpacing=8;strokeColor=#B3B3B3;rounded=1;strokeWidth=1;endFill=1;opacity=60;" parent="WIyWlLk6GJQsqaUBKTNV-1" edge="1">
          <mxGeometry width="50" height="50" relative="1" as="geometry">
            <mxPoint x="649.8999999999997" y="479.9999999999999" as="sourcePoint" />
            <mxPoint x="649.8999999999997" y="519.9999999999999" as="targetPoint" />
          </mxGeometry>
        </mxCell>
        <mxCell id="DyFku1vf3bDfi78aZa8K-31" value="" style="endArrow=none;html=1;startSize=14;endSize=14;sourcePerimeterSpacing=8;targetPerimeterSpacing=8;strokeColor=#B3B3B3;opacity=60;entryX=0.5;entryY=1;entryDx=0;entryDy=0;" parent="WIyWlLk6GJQsqaUBKTNV-1" target="DyFku1vf3bDfi78aZa8K-21" edge="1">
          <mxGeometry width="50" height="50" relative="1" as="geometry">
            <mxPoint x="420" y="630" as="sourcePoint" />
            <mxPoint x="650" y="570" as="targetPoint" />
            <Array as="points">
              <mxPoint x="420" y="600" />
              <mxPoint x="650" y="600" />
            </Array>
          </mxGeometry>
        </mxCell>
        <mxCell id="DyFku1vf3bDfi78aZa8K-33" value="" style="endArrow=none;html=1;startSize=14;endSize=14;sourcePerimeterSpacing=8;targetPerimeterSpacing=8;strokeColor=#B3B3B3;opacity=60;" parent="WIyWlLk6GJQsqaUBKTNV-1" edge="1">
          <mxGeometry width="50" height="50" relative="1" as="geometry">
            <mxPoint x="363.75" y="600" as="sourcePoint" />
            <mxPoint x="310.75000000000017" y="560" as="targetPoint" />
            <Array as="points">
              <mxPoint x="310.89" y="600" />
            </Array>
          </mxGeometry>
        </mxCell>
        <mxCell id="DyFku1vf3bDfi78aZa8K-35" value="" style="endArrow=none;html=1;startSize=14;endSize=14;sourcePerimeterSpacing=8;targetPerimeterSpacing=8;strokeColor=#B3B3B3;opacity=60;entryX=0.5;entryY=1;entryDx=0;entryDy=0;" parent="WIyWlLk6GJQsqaUBKTNV-1" target="DyFku1vf3bDfi78aZa8K-24" edge="1">
          <mxGeometry width="50" height="50" relative="1" as="geometry">
            <mxPoint x="420" y="630" as="sourcePoint" />
            <mxPoint x="199.86000000000013" y="590" as="targetPoint" />
            <Array as="points">
              <mxPoint x="420" y="600" />
              <mxPoint x="190" y="600" />
            </Array>
          </mxGeometry>
        </mxCell>
        <mxCell id="DyFku1vf3bDfi78aZa8K-37" value="" style="endArrow=blockThin;html=1;startSize=14;endSize=14;sourcePerimeterSpacing=8;targetPerimeterSpacing=8;strokeColor=#B3B3B3;rounded=1;strokeWidth=1;endFill=1;opacity=60;exitX=0.463;exitY=1;exitDx=0;exitDy=0;exitPerimeter=0;" parent="WIyWlLk6GJQsqaUBKTNV-1" source="igtL66f_QAcicd2vjec7-5" edge="1">
          <mxGeometry width="50" height="50" relative="1" as="geometry">
            <mxPoint x="420" y="630" as="sourcePoint" />
            <mxPoint x="420" y="650" as="targetPoint" />
          </mxGeometry>
        </mxCell>
        <mxCell id="DyFku1vf3bDfi78aZa8K-38" value="" style="endArrow=none;html=1;startSize=14;endSize=14;sourcePerimeterSpacing=8;targetPerimeterSpacing=8;strokeColor=#B3B3B3;opacity=60;entryX=0.5;entryY=1;entryDx=0;entryDy=0;" parent="WIyWlLk6GJQsqaUBKTNV-1" edge="1">
          <mxGeometry width="50" height="50" relative="1" as="geometry">
            <mxPoint x="473.75" y="600" as="sourcePoint" />
            <mxPoint x="533.7499999999999" y="560" as="targetPoint" />
            <Array as="points">
              <mxPoint x="533.75" y="600" />
            </Array>
          </mxGeometry>
        </mxCell>
        <mxCell id="DyFku1vf3bDfi78aZa8K-39" value="&lt;font color=&quot;#fcfcfc&quot; face=&quot;Poppins&quot;&gt;&lt;span style=&quot;font-size: 14px&quot;&gt;&lt;b&gt;END&lt;/b&gt;&lt;/span&gt;&lt;/font&gt;" style="rounded=1;whiteSpace=wrap;html=1;hachureGap=4;pointerEvents=0;fillColor=#4EC2CF;strokeColor=none;shadow=0;glass=0;sketch=0;gradientDirection=north;gradientColor=#89E3D2;" parent="WIyWlLk6GJQsqaUBKTNV-1" vertex="1">
          <mxGeometry x="350" y="650" width="140" height="30" as="geometry" />
        </mxCell>
        <mxCell id="DyFku1vf3bDfi78aZa8K-40" value="" style="endArrow=blockThin;html=1;fontFamily=Poppins;fontSource=https%3A%2F%2Ffonts.googleapis.com%2Fcss%3Ffamily%3DPoppins;startSize=10;endSize=14;sourcePerimeterSpacing=7;targetPerimeterSpacing=7;strokeColor=#B3B3B3;strokeWidth=1;align=right;verticalAlign=middle;opacity=60;endFill=1;entryX=1;entryY=0.5;entryDx=0;entryDy=0;exitX=0.5;exitY=1;exitDx=0;exitDy=0;" parent="WIyWlLk6GJQsqaUBKTNV-1" source="-IG1O3hMklvKj96a-HAn-4" target="DyFku1vf3bDfi78aZa8K-39" edge="1">
          <mxGeometry width="50" height="50" relative="1" as="geometry">
            <mxPoint x="730" y="350" as="sourcePoint" />
            <mxPoint x="900.8799999999999" y="391.4000000000001" as="targetPoint" />
            <Array as="points">
              <mxPoint x="730" y="665" />
            </Array>
          </mxGeometry>
        </mxCell>
        <mxCell id="igtL66f_QAcicd2vjec7-0" value="" style="endArrow=blockThin;html=1;startSize=14;endSize=14;sourcePerimeterSpacing=8;targetPerimeterSpacing=8;strokeColor=#B3B3B3;rounded=1;strokeWidth=1;endFill=1;opacity=60;entryX=0.5;entryY=0;entryDx=0;entryDy=0;" parent="WIyWlLk6GJQsqaUBKTNV-1" target="igtL66f_QAcicd2vjec7-1" edge="1">
          <mxGeometry width="50" height="50" relative="1" as="geometry">
            <mxPoint x="418.98" y="370" as="sourcePoint" />
            <mxPoint x="418.5399999999997" y="419.9999999999998" as="targetPoint" />
          </mxGeometry>
        </mxCell>
        <mxCell id="igtL66f_QAcicd2vjec7-1" value="&lt;font face=&quot;Poppins&quot; style=&quot;font-size: 9px&quot;&gt;option&lt;br&gt;--validate --stats &lt;br&gt;or&amp;nbsp; --v --s&lt;br&gt;&lt;/font&gt;" style="shape=parallelogram;perimeter=parallelogramPerimeter;whiteSpace=wrap;html=1;fixedSize=1;shadow=0;glass=1;sketch=0;hachureGap=4;pointerEvents=0;fillColor=#CCFFE6;strokeColor=none;rounded=1;arcSize=22;align=center;gradientColor=#ffffff;" parent="WIyWlLk6GJQsqaUBKTNV-1" vertex="1">
          <mxGeometry x="363.75" y="430" width="110" height="50" as="geometry" />
        </mxCell>
        <mxCell id="igtL66f_QAcicd2vjec7-2" value="" style="endArrow=blockThin;html=1;startSize=14;endSize=14;sourcePerimeterSpacing=8;targetPerimeterSpacing=8;strokeColor=#B3B3B3;rounded=1;strokeWidth=1;endFill=1;opacity=60;" parent="WIyWlLk6GJQsqaUBKTNV-1" edge="1">
          <mxGeometry width="50" height="50" relative="1" as="geometry">
            <mxPoint x="418.5099999999997" y="479.9999999999999" as="sourcePoint" />
            <mxPoint x="418.5099999999997" y="520" as="targetPoint" />
          </mxGeometry>
        </mxCell>
        <mxCell id="igtL66f_QAcicd2vjec7-5" value="&lt;font style=&quot;font-size: 9px&quot;&gt;Show total, unique &amp;amp; broken links&lt;/font&gt;" style="rounded=1;whiteSpace=wrap;html=1;shadow=0;glass=0;sketch=0;hachureGap=4;pointerEvents=0;fontFamily=Poppins;fontSource=https%3A%2F%2Ffonts.googleapis.com%2Fcss%3Ffamily%3DPoppins;strokeColor=none;fillColor=#FFFFFF;gradientDirection=north;gradientColor=#99CCFF;" parent="WIyWlLk6GJQsqaUBKTNV-1" vertex="1">
          <mxGeometry x="373.75" y="520" width="100" height="40" as="geometry" />
        </mxCell>
        <mxCell id="r3mhxGdvu3pKAxLkOfIZ-0" value="&lt;b&gt;&lt;font face=&quot;Poppins&quot; data-font-src=&quot;https://fonts.googleapis.com/css?family=Poppins&quot; color=&quot;#67ab9f&quot; style=&quot;font-size: 32px&quot;&gt;CLI&amp;nbsp; Flowchart&amp;nbsp;&lt;/font&gt;&lt;/b&gt;" style="text;html=1;resizable=0;autosize=1;align=center;verticalAlign=middle;points=[];fillColor=none;strokeColor=none;rounded=0;fontSize=9;" parent="WIyWlLk6GJQsqaUBKTNV-1" vertex="1">
          <mxGeometry x="299.75" y="17" width="238" height="23" as="geometry" />
        </mxCell>
        <mxCell id="r3mhxGdvu3pKAxLkOfIZ-1" value="&lt;font face=&quot;Poppins&quot; data-font-src=&quot;https://fonts.googleapis.com/css?family=Poppins&quot; style=&quot;font-size: 12px&quot; color=&quot;#67ab9f&quot;&gt;@mysticBel&lt;/font&gt;" style="text;html=1;resizable=0;autosize=1;align=center;verticalAlign=middle;points=[];fillColor=none;strokeColor=none;rounded=0;fontSize=9;" parent="WIyWlLk6GJQsqaUBKTNV-1" vertex="1">
          <mxGeometry x="675" y="783" width="80" height="15" as="geometry" />
        </mxCell>
      </root>
    </mxGraphModel>
  </diagram>
  <diagram id="QHuL4XXukO6EPlNWGHLC" name="Page-2">
    <mxGraphModel dx="1626" dy="1335" grid="0" gridSize="10" guides="1" tooltips="1" connect="1" arrows="1" fold="1" page="0" pageScale="1" pageWidth="827" pageHeight="1169" math="0" shadow="0">
      <root>
        <mxCell id="2HKKLLd31zWiuBAIn60T-0" />
        <mxCell id="2HKKLLd31zWiuBAIn60T-1" parent="2HKKLLd31zWiuBAIn60T-0" />
        <mxCell id="2HKKLLd31zWiuBAIn60T-2" value="&lt;font style=&quot;font-size: 14px&quot; color=&quot;#fcfcfc&quot; face=&quot;Poppins&quot; data-font-src=&quot;https://fonts.googleapis.com/css?family=Poppins&quot;&gt;&lt;b&gt;START&lt;/b&gt;&lt;/font&gt;" style="rounded=1;whiteSpace=wrap;html=1;hachureGap=4;pointerEvents=0;fillColor=#A093CC;strokeColor=none;shadow=0;glass=0;sketch=0;gradientDirection=north;gradientColor=#FCD1FF;" parent="2HKKLLd31zWiuBAIn60T-1" vertex="1">
          <mxGeometry x="344.5" y="-66" width="143.5" height="30" as="geometry" />
        </mxCell>
        <mxCell id="2HKKLLd31zWiuBAIn60T-3" value="&lt;font face=&quot;Poppins&quot; data-font-src=&quot;https://fonts.googleapis.com/css?family=Poppins&quot; style=&quot;font-size: 10px&quot;&gt;insert Path&lt;/font&gt;" style="shape=parallelogram;perimeter=parallelogramPerimeter;whiteSpace=wrap;html=1;fixedSize=1;shadow=0;glass=1;sketch=0;hachureGap=4;pointerEvents=0;fillColor=#FFE8FD;strokeColor=none;rounded=1;arcSize=24;gradientColor=#ffffff;" parent="2HKKLLd31zWiuBAIn60T-1" vertex="1">
          <mxGeometry x="355.25" y="110" width="122.5" height="40" as="geometry" />
        </mxCell>
        <mxCell id="2HKKLLd31zWiuBAIn60T-4" value="&lt;font face=&quot;Poppins&quot;&gt;&lt;span style=&quot;font-size: 10px&quot;&gt;resolve Path to&lt;br&gt;&amp;nbsp;Absolute Path&lt;/span&gt;&lt;/font&gt;" style="shape=parallelogram;perimeter=parallelogramPerimeter;whiteSpace=wrap;html=1;fixedSize=1;shadow=0;glass=1;sketch=0;hachureGap=4;pointerEvents=0;fillColor=#FFE8FD;strokeColor=none;rounded=1;arcSize=22;align=center;gradientColor=#ffffff;" parent="2HKKLLd31zWiuBAIn60T-1" vertex="1">
          <mxGeometry x="351.25" y="190" width="130" height="50" as="geometry" />
        </mxCell>
        <mxCell id="2HKKLLd31zWiuBAIn60T-5" value="" style="endArrow=blockThin;html=1;startSize=14;endSize=14;sourcePerimeterSpacing=8;targetPerimeterSpacing=8;strokeColor=#B3B3B3;rounded=1;strokeWidth=1;endFill=1;opacity=60;" parent="2HKKLLd31zWiuBAIn60T-1" edge="1">
          <mxGeometry width="50" height="50" relative="1" as="geometry">
            <mxPoint x="416.29999999999995" y="70" as="sourcePoint" />
            <mxPoint x="416.29999999999995" y="110" as="targetPoint" />
          </mxGeometry>
        </mxCell>
        <mxCell id="2HKKLLd31zWiuBAIn60T-6" value="&lt;font face=&quot;Poppins&quot; data-font-src=&quot;https://fonts.googleapis.com/css?family=Poppins&quot; style=&quot;font-size: 10px&quot;&gt;&lt;font&gt;Path &lt;br&gt;exists?&lt;/font&gt;&lt;/font&gt;" style="rhombus;whiteSpace=wrap;html=1;rounded=1;shadow=0;glass=0;sketch=0;hachureGap=4;pointerEvents=0;strokeColor=none;fillColor=#FFF2CC;gradientDirection=north;arcSize=8;gradientColor=#FCF6F0;" parent="2HKKLLd31zWiuBAIn60T-1" vertex="1">
          <mxGeometry x="375" y="280" width="87.5" height="70" as="geometry" />
        </mxCell>
        <mxCell id="2HKKLLd31zWiuBAIn60T-7" value="&lt;font style=&quot;font-size: 9px&quot;&gt;yes&lt;/font&gt;" style="endArrow=blockThin;html=1;startSize=10;endSize=14;sourcePerimeterSpacing=7;targetPerimeterSpacing=7;strokeColor=#B3B3B3;rounded=1;strokeWidth=1;endFill=1;opacity=60;fontFamily=Poppins;fontSource=https%3A%2F%2Ffonts.googleapis.com%2Fcss%3Ffamily%3DPoppins;verticalAlign=middle;labelPosition=center;verticalLabelPosition=middle;align=center;" parent="2HKKLLd31zWiuBAIn60T-1" edge="1">
          <mxGeometry x="-0.2157" width="50" height="50" relative="1" as="geometry">
            <mxPoint x="420.24" y="350" as="sourcePoint" />
            <mxPoint x="420" y="401" as="targetPoint" />
            <mxPoint as="offset" />
          </mxGeometry>
        </mxCell>
        <mxCell id="2HKKLLd31zWiuBAIn60T-8" value="&lt;font face=&quot;Poppins&quot; data-font-src=&quot;https://fonts.googleapis.com/css?family=Poppins&quot; style=&quot;font-size: 10px&quot;&gt;&lt;font&gt;&lt;br&gt;&lt;/font&gt;&lt;font&gt;&amp;nbsp;Directory&lt;br&gt;&amp;nbsp;exists?&lt;/font&gt;&lt;/font&gt;" style="rhombus;whiteSpace=wrap;html=1;rounded=1;shadow=0;glass=0;sketch=0;hachureGap=4;pointerEvents=0;strokeColor=none;fillColor=default;gradientDirection=north;arcSize=8;gradientColor=#FFF2CC;" parent="2HKKLLd31zWiuBAIn60T-1" vertex="1">
          <mxGeometry x="373.75" y="400" width="90" height="70" as="geometry" />
        </mxCell>
        <mxCell id="2HKKLLd31zWiuBAIn60T-9" value="&lt;font style=&quot;font-size: 9px&quot;&gt;yes&lt;/font&gt;" style="endArrow=blockThin;html=1;startSize=14;endSize=14;sourcePerimeterSpacing=8;targetPerimeterSpacing=8;strokeColor=#B3B3B3;rounded=1;strokeWidth=1;endFill=1;opacity=60;fontFamily=Poppins;fontSource=https%3A%2F%2Ffonts.googleapis.com%2Fcss%3Ffamily%3DPoppins;verticalAlign=middle;entryX=1;entryY=0.5;entryDx=0;entryDy=0;exitX=0.021;exitY=0.518;exitDx=0;exitDy=0;exitPerimeter=0;" parent="2HKKLLd31zWiuBAIn60T-1" source="2HKKLLd31zWiuBAIn60T-8" target="2HKKLLd31zWiuBAIn60T-10" edge="1">
          <mxGeometry x="-0.2" width="50" height="50" relative="1" as="geometry">
            <mxPoint x="380.24" y="440" as="sourcePoint" />
            <mxPoint x="380.0000000000002" y="490" as="targetPoint" />
            <mxPoint as="offset" />
          </mxGeometry>
        </mxCell>
        <mxCell id="2HKKLLd31zWiuBAIn60T-10" value="&lt;font face=&quot;Poppins&quot;&gt;&lt;span style=&quot;font-size: 10px&quot;&gt;check Directory&lt;br&gt;&lt;/span&gt;&lt;/font&gt;" style="shape=parallelogram;perimeter=parallelogramPerimeter;whiteSpace=wrap;html=1;fixedSize=1;shadow=0;glass=1;sketch=0;hachureGap=4;pointerEvents=0;fillColor=#FFE8FD;strokeColor=none;rounded=1;arcSize=21;align=center;gradientColor=#ffffff;" parent="2HKKLLd31zWiuBAIn60T-1" vertex="1">
          <mxGeometry x="190.5" y="405" width="129.5" height="60" as="geometry" />
        </mxCell>
        <mxCell id="2HKKLLd31zWiuBAIn60T-11" value="" style="endArrow=block;html=1;startSize=14;endSize=14;sourcePerimeterSpacing=8;targetPerimeterSpacing=8;strokeColor=#B3B3B3;rounded=1;strokeWidth=1;endFill=1;opacity=60;exitX=0.5;exitY=1;exitDx=0;exitDy=0;entryX=0.5;entryY=0;entryDx=0;entryDy=0;" parent="2HKKLLd31zWiuBAIn60T-1" source="2HKKLLd31zWiuBAIn60T-10" target="2HKKLLd31zWiuBAIn60T-12" edge="1">
          <mxGeometry width="50" height="50" relative="1" as="geometry">
            <mxPoint x="350" y="550" as="sourcePoint" />
            <mxPoint x="320" y="549.58" as="targetPoint" />
          </mxGeometry>
        </mxCell>
        <mxCell id="2HKKLLd31zWiuBAIn60T-12" value="&lt;font face=&quot;Poppins&quot; data-font-src=&quot;https://fonts.googleapis.com/css?family=Poppins&quot; style=&quot;font-size: 10px&quot;&gt;Is&amp;nbsp; Directory&lt;br&gt;empty?&lt;/font&gt;" style="rhombus;whiteSpace=wrap;html=1;rounded=1;shadow=0;glass=0;sketch=0;hachureGap=4;pointerEvents=0;strokeColor=none;fillColor=default;gradientDirection=north;arcSize=8;gradientColor=#FFF2CC;" parent="2HKKLLd31zWiuBAIn60T-1" vertex="1">
          <mxGeometry x="210.25" y="507.5" width="90" height="85" as="geometry" />
        </mxCell>
        <mxCell id="2HKKLLd31zWiuBAIn60T-13" value="&lt;font style=&quot;font-size: 9px&quot;&gt;no&lt;/font&gt;" style="endArrow=blockThin;html=1;startSize=14;endSize=14;sourcePerimeterSpacing=8;targetPerimeterSpacing=8;strokeColor=#B3B3B3;rounded=1;strokeWidth=1;endFill=1;opacity=60;fontFamily=Poppins;fontSource=https%3A%2F%2Ffonts.googleapis.com%2Fcss%3Ffamily%3DPoppins;verticalAlign=middle;exitX=1;exitY=0.5;exitDx=0;exitDy=0;" parent="2HKKLLd31zWiuBAIn60T-1" source="2HKKLLd31zWiuBAIn60T-12" edge="1">
          <mxGeometry x="-0.1999" width="50" height="50" relative="1" as="geometry">
            <mxPoint x="320.24" y="542.5" as="sourcePoint" />
            <mxPoint x="360" y="550" as="targetPoint" />
            <mxPoint as="offset" />
            <Array as="points" />
          </mxGeometry>
        </mxCell>
        <mxCell id="2HKKLLd31zWiuBAIn60T-14" value="" style="endArrow=blockThin;html=1;startSize=14;endSize=14;sourcePerimeterSpacing=8;targetPerimeterSpacing=8;strokeColor=#B3B3B3;rounded=1;strokeWidth=1;endFill=1;opacity=60;" parent="2HKKLLd31zWiuBAIn60T-1" edge="1">
          <mxGeometry width="50" height="50" relative="1" as="geometry">
            <mxPoint x="416.0499999999997" y="150" as="sourcePoint" />
            <mxPoint x="416.0499999999997" y="190" as="targetPoint" />
          </mxGeometry>
        </mxCell>
        <mxCell id="2HKKLLd31zWiuBAIn60T-15" value="" style="endArrow=blockThin;html=1;startSize=14;endSize=14;sourcePerimeterSpacing=8;targetPerimeterSpacing=8;strokeColor=#B3B3B3;rounded=1;strokeWidth=1;endFill=1;opacity=60;" parent="2HKKLLd31zWiuBAIn60T-1" edge="1">
          <mxGeometry width="50" height="50" relative="1" as="geometry">
            <mxPoint x="417.08000000000015" y="240" as="sourcePoint" />
            <mxPoint x="417.08000000000015" y="280" as="targetPoint" />
          </mxGeometry>
        </mxCell>
        <mxCell id="2HKKLLd31zWiuBAIn60T-16" value="&lt;font style=&quot;font-size: 9px&quot;&gt;no&lt;/font&gt;" style="endArrow=blockThin;html=1;startSize=14;endSize=14;sourcePerimeterSpacing=8;targetPerimeterSpacing=8;strokeColor=#B3B3B3;rounded=1;strokeWidth=1;endFill=1;opacity=60;fontFamily=Poppins;fontSource=https%3A%2F%2Ffonts.googleapis.com%2Fcss%3Ffamily%3DPoppins;verticalAlign=middle;labelPosition=center;verticalLabelPosition=middle;align=center;entryX=0;entryY=0.5;entryDx=0;entryDy=0;" parent="2HKKLLd31zWiuBAIn60T-1" target="2HKKLLd31zWiuBAIn60T-17" edge="1">
          <mxGeometry x="-0.1657" width="50" height="50" relative="1" as="geometry">
            <mxPoint x="462.73999999999955" y="320" as="sourcePoint" />
            <mxPoint x="600" y="320" as="targetPoint" />
            <mxPoint as="offset" />
            <Array as="points" />
          </mxGeometry>
        </mxCell>
        <mxCell id="2HKKLLd31zWiuBAIn60T-17" value="&lt;font style=&quot;font-size: 10px&quot;&gt;This path does &lt;br&gt;not exist&lt;/font&gt;" style="rounded=1;whiteSpace=wrap;html=1;shadow=0;glass=0;sketch=0;hachureGap=4;pointerEvents=0;fontFamily=Poppins;fontSource=https%3A%2F%2Ffonts.googleapis.com%2Fcss%3Ffamily%3DPoppins;strokeColor=none;fillColor=#FFFFFF;gradientDirection=north;gradientColor=#BAC8FF;" parent="2HKKLLd31zWiuBAIn60T-1" vertex="1">
          <mxGeometry x="680" y="300" width="120" height="40" as="geometry" />
        </mxCell>
        <mxCell id="2HKKLLd31zWiuBAIn60T-18" value="&lt;font style=&quot;font-size: 14px&quot; color=&quot;#fcfcfc&quot; face=&quot;Poppins&quot; data-font-src=&quot;https://fonts.googleapis.com/css?family=Poppins&quot;&gt;&lt;b&gt;END&lt;/b&gt;&lt;/font&gt;" style="rounded=1;whiteSpace=wrap;html=1;hachureGap=4;pointerEvents=0;fillColor=#A093CC;strokeColor=none;shadow=1;glass=0;sketch=0;gradientDirection=north;gradientColor=#FCD1FF;" parent="2HKKLLd31zWiuBAIn60T-1" vertex="1">
          <mxGeometry x="348.25" y="1200" width="140" height="30" as="geometry" />
        </mxCell>
        <mxCell id="2HKKLLd31zWiuBAIn60T-19" value="&lt;font face=&quot;Poppins&quot; style=&quot;font-size: 9px&quot;&gt;&lt;span style=&quot;font-size: 10px&quot;&gt;filter array to get&lt;br&gt;only MD files&lt;/span&gt;&lt;/font&gt;" style="shape=parallelogram;perimeter=parallelogramPerimeter;whiteSpace=wrap;html=1;fixedSize=1;shadow=0;glass=1;sketch=0;hachureGap=4;pointerEvents=0;fillColor=#FFE8FD;strokeColor=none;rounded=1;arcSize=21;align=center;gradientColor=#ffffff;" parent="2HKKLLd31zWiuBAIn60T-1" vertex="1">
          <mxGeometry x="348.25" y="520" width="141.75" height="60" as="geometry" />
        </mxCell>
        <mxCell id="2HKKLLd31zWiuBAIn60T-20" value="&lt;font style=&quot;font-size: 9px&quot;&gt;no&lt;/font&gt;" style="endArrow=blockThin;html=1;startSize=10;endSize=14;sourcePerimeterSpacing=7;targetPerimeterSpacing=7;strokeColor=#B3B3B3;rounded=1;strokeWidth=1;endFill=1;opacity=60;fontFamily=Poppins;fontSource=https%3A%2F%2Ffonts.googleapis.com%2Fcss%3Ffamily%3DPoppins;verticalAlign=middle;labelPosition=center;verticalLabelPosition=middle;align=center;" parent="2HKKLLd31zWiuBAIn60T-1" edge="1">
          <mxGeometry x="-0.2157" width="50" height="50" relative="1" as="geometry">
            <mxPoint x="419.0000000000002" y="469" as="sourcePoint" />
            <mxPoint x="418.5499999999997" y="520" as="targetPoint" />
            <mxPoint as="offset" />
          </mxGeometry>
        </mxCell>
        <mxCell id="2HKKLLd31zWiuBAIn60T-21" value="&lt;font face=&quot;Poppins&quot; data-font-src=&quot;https://fonts.googleapis.com/css?family=Poppins&quot; style=&quot;font-size: 9px&quot;&gt;&lt;font&gt;Are there&amp;nbsp;&lt;br&gt;&amp;nbsp;MD files&lt;/font&gt;&lt;font&gt;?&lt;/font&gt;&lt;/font&gt;" style="rhombus;whiteSpace=wrap;html=1;rounded=1;shadow=0;glass=0;sketch=0;hachureGap=4;pointerEvents=0;strokeColor=none;fillColor=default;gradientDirection=north;arcSize=8;gradientColor=#FFF2CC;" parent="2HKKLLd31zWiuBAIn60T-1" vertex="1">
          <mxGeometry x="374.5" y="620" width="87.5" height="70" as="geometry" />
        </mxCell>
        <mxCell id="2HKKLLd31zWiuBAIn60T-22" value="" style="endArrow=blockThin;html=1;startSize=14;endSize=14;sourcePerimeterSpacing=8;targetPerimeterSpacing=8;strokeColor=#B3B3B3;rounded=1;strokeWidth=1;endFill=1;opacity=60;" parent="2HKKLLd31zWiuBAIn60T-1" edge="1">
          <mxGeometry width="50" height="50" relative="1" as="geometry">
            <mxPoint x="418.5499999999997" y="580" as="sourcePoint" />
            <mxPoint x="418.5499999999997" y="620" as="targetPoint" />
          </mxGeometry>
        </mxCell>
        <mxCell id="2HKKLLd31zWiuBAIn60T-23" value="&lt;font style=&quot;font-size: 9px&quot;&gt;yes&lt;/font&gt;" style="endArrow=blockThin;html=1;startSize=10;endSize=14;sourcePerimeterSpacing=7;targetPerimeterSpacing=7;strokeColor=#B3B3B3;rounded=1;strokeWidth=1;endFill=1;opacity=60;fontFamily=Poppins;fontSource=https%3A%2F%2Ffonts.googleapis.com%2Fcss%3Ffamily%3DPoppins;verticalAlign=middle;labelPosition=center;verticalLabelPosition=middle;align=center;" parent="2HKKLLd31zWiuBAIn60T-1" edge="1">
          <mxGeometry x="-0.2157" width="50" height="50" relative="1" as="geometry">
            <mxPoint x="418.78999999999974" y="690" as="sourcePoint" />
            <mxPoint x="418.5499999999997" y="741.0000000000002" as="targetPoint" />
            <mxPoint as="offset" />
          </mxGeometry>
        </mxCell>
        <mxCell id="2HKKLLd31zWiuBAIn60T-24" value="&lt;font face=&quot;Poppins&quot; data-font-src=&quot;https://fonts.googleapis.com/css?family=Poppins&quot; style=&quot;font-size: 9px&quot;&gt;&lt;font&gt;Are there &lt;br&gt;URLs&amp;nbsp;&lt;/font&gt;&lt;font&gt;?&lt;/font&gt;&lt;/font&gt;" style="rhombus;whiteSpace=wrap;html=1;rounded=1;shadow=0;glass=0;sketch=0;hachureGap=4;pointerEvents=0;strokeColor=none;fillColor=default;gradientDirection=north;arcSize=8;gradientColor=#FFF2CC;" parent="2HKKLLd31zWiuBAIn60T-1" vertex="1">
          <mxGeometry x="375" y="740" width="87.5" height="70" as="geometry" />
        </mxCell>
        <mxCell id="2HKKLLd31zWiuBAIn60T-25" value="&lt;font face=&quot;Poppins&quot; data-font-src=&quot;https://fonts.googleapis.com/css?family=Poppins&quot; style=&quot;font-size: 9px&quot;&gt;&lt;font&gt;validate = TRUE&amp;nbsp;&lt;/font&gt;&lt;font&gt;?&lt;/font&gt;&lt;/font&gt;" style="rhombus;whiteSpace=wrap;html=1;rounded=1;shadow=0;glass=0;sketch=0;hachureGap=4;pointerEvents=0;strokeColor=none;fillColor=default;gradientDirection=north;arcSize=8;gradientColor=#FFF2CC;" parent="2HKKLLd31zWiuBAIn60T-1" vertex="1">
          <mxGeometry x="374.5" y="860" width="87.5" height="70" as="geometry" />
        </mxCell>
        <mxCell id="2HKKLLd31zWiuBAIn60T-26" value="&lt;font style=&quot;font-size: 9px&quot;&gt;yes&lt;/font&gt;" style="endArrow=blockThin;html=1;startSize=10;endSize=14;sourcePerimeterSpacing=7;targetPerimeterSpacing=7;strokeColor=#B3B3B3;rounded=1;strokeWidth=1;endFill=1;opacity=60;fontFamily=Poppins;fontSource=https%3A%2F%2Ffonts.googleapis.com%2Fcss%3Ffamily%3DPoppins;verticalAlign=middle;labelPosition=center;verticalLabelPosition=middle;align=center;" parent="2HKKLLd31zWiuBAIn60T-1" edge="1">
          <mxGeometry x="-0.2157" width="50" height="50" relative="1" as="geometry">
            <mxPoint x="418.8699999999999" y="810" as="sourcePoint" />
            <mxPoint x="418.6300000000001" y="861" as="targetPoint" />
            <mxPoint as="offset" />
          </mxGeometry>
        </mxCell>
        <mxCell id="2HKKLLd31zWiuBAIn60T-27" value="&lt;font face=&quot;Poppins&quot;&gt;&lt;span style=&quot;font-size: 10px&quot;&gt;HTTP&lt;br&gt;&amp;nbsp;REQUEST&lt;/span&gt;&lt;/font&gt;" style="shape=parallelogram;perimeter=parallelogramPerimeter;whiteSpace=wrap;html=1;fixedSize=1;shadow=0;glass=1;sketch=0;hachureGap=4;pointerEvents=0;fillColor=#FFE8FD;strokeColor=none;rounded=1;arcSize=22;align=center;gradientColor=#ffffff;" parent="2HKKLLd31zWiuBAIn60T-1" vertex="1">
          <mxGeometry x="353.25" y="980" width="130" height="50" as="geometry" />
        </mxCell>
        <mxCell id="2HKKLLd31zWiuBAIn60T-28" value="&lt;font face=&quot;Poppins&quot; style=&quot;font-size: 9px&quot;&gt;return array&amp;nbsp;:&amp;nbsp;&lt;br&gt;href, text, file, status, ok/fail&lt;br&gt;&lt;/font&gt;" style="shape=parallelogram;perimeter=parallelogramPerimeter;whiteSpace=wrap;html=1;fixedSize=1;shadow=0;glass=1;sketch=0;hachureGap=4;pointerEvents=0;fillColor=#FFE8FD;strokeColor=none;rounded=1;arcSize=22;align=center;gradientColor=#ffffff;" parent="2HKKLLd31zWiuBAIn60T-1" vertex="1">
          <mxGeometry x="337.75" y="1070" width="150" height="70" as="geometry" />
        </mxCell>
        <mxCell id="2HKKLLd31zWiuBAIn60T-29" value="&lt;font style=&quot;font-size: 9px&quot;&gt;yes&lt;/font&gt;" style="endArrow=blockThin;html=1;startSize=10;endSize=14;sourcePerimeterSpacing=7;targetPerimeterSpacing=7;strokeColor=#B3B3B3;rounded=1;strokeWidth=1;endFill=1;opacity=60;fontFamily=Poppins;fontSource=https%3A%2F%2Ffonts.googleapis.com%2Fcss%3Ffamily%3DPoppins;verticalAlign=middle;labelPosition=center;verticalLabelPosition=middle;align=center;" parent="2HKKLLd31zWiuBAIn60T-1" edge="1">
          <mxGeometry x="-0.2157" width="50" height="50" relative="1" as="geometry">
            <mxPoint x="418.3699999999999" y="929" as="sourcePoint" />
            <mxPoint x="418.13000000000034" y="980" as="targetPoint" />
            <mxPoint as="offset" />
          </mxGeometry>
        </mxCell>
        <mxCell id="2HKKLLd31zWiuBAIn60T-30" value="" style="endArrow=blockThin;html=1;startSize=14;endSize=14;sourcePerimeterSpacing=8;targetPerimeterSpacing=8;strokeColor=#B3B3B3;rounded=1;strokeWidth=1;endFill=1;opacity=60;" parent="2HKKLLd31zWiuBAIn60T-1" edge="1">
          <mxGeometry width="50" height="50" relative="1" as="geometry">
            <mxPoint x="418.1500000000001" y="1030" as="sourcePoint" />
            <mxPoint x="418.1500000000001" y="1070" as="targetPoint" />
          </mxGeometry>
        </mxCell>
        <mxCell id="2HKKLLd31zWiuBAIn60T-32" value="&lt;font style=&quot;font-size: 10px&quot;&gt;Links not found :c&lt;/font&gt;" style="rounded=1;whiteSpace=wrap;html=1;shadow=0;glass=0;sketch=0;hachureGap=4;pointerEvents=0;fontFamily=Poppins;fontSource=https%3A%2F%2Ffonts.googleapis.com%2Fcss%3Ffamily%3DPoppins;strokeColor=none;fillColor=#FFFFFF;gradientDirection=north;gradientColor=#BAC8FF;" parent="2HKKLLd31zWiuBAIn60T-1" vertex="1">
          <mxGeometry x="540" y="755" width="110" height="40" as="geometry" />
        </mxCell>
        <mxCell id="2HKKLLd31zWiuBAIn60T-33" value="&lt;span style=&quot;font-size: 9px&quot;&gt;return array :&lt;br&gt;&amp;nbsp;&lt;/span&gt;&lt;span style=&quot;font-size: 9px&quot;&gt;href, text, file&lt;/span&gt;" style="rounded=1;whiteSpace=wrap;html=1;shadow=0;glass=0;sketch=0;hachureGap=4;pointerEvents=0;fontFamily=Poppins;fontSource=https%3A%2F%2Ffonts.googleapis.com%2Fcss%3Ffamily%3DPoppins;strokeColor=none;fillColor=#FFFFFF;gradientDirection=north;gradientColor=#BAC8FF;" parent="2HKKLLd31zWiuBAIn60T-1" vertex="1">
          <mxGeometry x="538" y="867.5" width="120" height="55" as="geometry" />
        </mxCell>
        <mxCell id="2HKKLLd31zWiuBAIn60T-34" value="&lt;font style=&quot;font-size: 9px&quot;&gt;no&lt;/font&gt;" style="endArrow=blockThin;html=1;startSize=14;endSize=14;sourcePerimeterSpacing=8;targetPerimeterSpacing=8;strokeColor=#B3B3B3;rounded=1;strokeWidth=1;endFill=1;opacity=60;fontFamily=Poppins;fontSource=https%3A%2F%2Ffonts.googleapis.com%2Fcss%3Ffamily%3DPoppins;verticalAlign=middle;exitX=0.98;exitY=0.499;exitDx=0;exitDy=0;exitPerimeter=0;entryX=0;entryY=0.5;entryDx=0;entryDy=0;" parent="2HKKLLd31zWiuBAIn60T-1" source="2HKKLLd31zWiuBAIn60T-21" edge="1" target="ItGzA9zKGtQzRtP4-NaQ-2">
          <mxGeometry x="-0.1999" width="50" height="50" relative="1" as="geometry">
            <mxPoint x="462" y="654.8" as="sourcePoint" />
            <mxPoint x="535" y="654" as="targetPoint" />
            <mxPoint as="offset" />
            <Array as="points" />
          </mxGeometry>
        </mxCell>
        <mxCell id="2HKKLLd31zWiuBAIn60T-35" value="&lt;font style=&quot;font-size: 9px&quot;&gt;no&lt;/font&gt;" style="endArrow=blockThin;html=1;startSize=14;endSize=14;sourcePerimeterSpacing=8;targetPerimeterSpacing=8;strokeColor=#B3B3B3;rounded=1;strokeWidth=1;endFill=1;opacity=60;fontFamily=Poppins;fontSource=https%3A%2F%2Ffonts.googleapis.com%2Fcss%3Ffamily%3DPoppins;verticalAlign=middle;exitX=1;exitY=0.5;exitDx=0;exitDy=0;entryX=0.006;entryY=0.532;entryDx=0;entryDy=0;entryPerimeter=0;" parent="2HKKLLd31zWiuBAIn60T-1" target="2HKKLLd31zWiuBAIn60T-32" edge="1">
          <mxGeometry x="-0.1999" width="50" height="50" relative="1" as="geometry">
            <mxPoint x="462" y="774.8000000000002" as="sourcePoint" />
            <mxPoint x="521.75" y="774.8" as="targetPoint" />
            <mxPoint as="offset" />
            <Array as="points" />
          </mxGeometry>
        </mxCell>
        <mxCell id="2HKKLLd31zWiuBAIn60T-36" value="" style="endArrow=blockThin;html=1;fontFamily=Poppins;fontSource=https%3A%2F%2Ffonts.googleapis.com%2Fcss%3Ffamily%3DPoppins;startSize=10;endSize=14;sourcePerimeterSpacing=7;targetPerimeterSpacing=7;strokeColor=#B3B3B3;strokeWidth=1;align=right;verticalAlign=middle;opacity=60;endFill=1;exitX=1;exitY=0.5;exitDx=0;exitDy=0;" parent="2HKKLLd31zWiuBAIn60T-1" edge="1" source="2HKKLLd31zWiuBAIn60T-33">
          <mxGeometry width="50" height="50" relative="1" as="geometry">
            <mxPoint x="660" y="895" as="sourcePoint" />
            <mxPoint x="740" y="895" as="targetPoint" />
          </mxGeometry>
        </mxCell>
        <mxCell id="2HKKLLd31zWiuBAIn60T-37" value="" style="endArrow=blockThin;html=1;fontFamily=Poppins;fontSource=https%3A%2F%2Ffonts.googleapis.com%2Fcss%3Ffamily%3DPoppins;startSize=10;endSize=14;sourcePerimeterSpacing=7;targetPerimeterSpacing=7;strokeColor=#B3B3B3;strokeWidth=1;align=right;verticalAlign=middle;opacity=60;endFill=1;exitX=1;exitY=0.5;exitDx=0;exitDy=0;" parent="2HKKLLd31zWiuBAIn60T-1" edge="1" source="2HKKLLd31zWiuBAIn60T-32">
          <mxGeometry width="50" height="50" relative="1" as="geometry">
            <mxPoint x="650" y="775" as="sourcePoint" />
            <mxPoint x="740" y="775" as="targetPoint" />
          </mxGeometry>
        </mxCell>
        <mxCell id="2HKKLLd31zWiuBAIn60T-38" value="" style="endArrow=none;html=1;fontFamily=Poppins;fontSource=https%3A%2F%2Ffonts.googleapis.com%2Fcss%3Ffamily%3DPoppins;startSize=10;endSize=14;sourcePerimeterSpacing=7;targetPerimeterSpacing=7;strokeColor=#B3B3B3;strokeWidth=1;align=right;verticalAlign=middle;opacity=60;" parent="2HKKLLd31zWiuBAIn60T-1" edge="1">
          <mxGeometry width="50" height="50" relative="1" as="geometry">
            <mxPoint x="90" y="1210" as="sourcePoint" />
            <mxPoint x="89.95000000000005" y="550" as="targetPoint" />
          </mxGeometry>
        </mxCell>
        <mxCell id="2HKKLLd31zWiuBAIn60T-39" value="" style="endArrow=blockThin;html=1;fontFamily=Poppins;fontSource=https%3A%2F%2Ffonts.googleapis.com%2Fcss%3Ffamily%3DPoppins;startSize=10;endSize=14;sourcePerimeterSpacing=7;targetPerimeterSpacing=7;strokeColor=#B3B3B3;strokeWidth=1;align=right;verticalAlign=middle;opacity=60;entryX=1.002;entryY=0.597;entryDx=0;entryDy=0;entryPerimeter=0;endFill=1;" parent="2HKKLLd31zWiuBAIn60T-1" target="2HKKLLd31zWiuBAIn60T-18" edge="1">
          <mxGeometry width="50" height="50" relative="1" as="geometry">
            <mxPoint x="740" y="1210" as="sourcePoint" />
            <mxPoint x="570" y="1510" as="targetPoint" />
            <Array as="points">
              <mxPoint x="740" y="1220" />
            </Array>
          </mxGeometry>
        </mxCell>
        <mxCell id="2HKKLLd31zWiuBAIn60T-40" value="&lt;span style=&quot;font-size: 10px&quot;&gt;Links not found :c&lt;/span&gt;" style="rounded=1;whiteSpace=wrap;html=1;shadow=0;glass=0;sketch=0;hachureGap=4;pointerEvents=0;fontFamily=Poppins;fontSource=https%3A%2F%2Ffonts.googleapis.com%2Fcss%3Ffamily%3DPoppins;strokeColor=none;fillColor=#FFFFFF;gradientDirection=north;gradientColor=#BAC8FF;" parent="2HKKLLd31zWiuBAIn60T-1" vertex="1">
          <mxGeometry x="40" y="530" width="100" height="40" as="geometry" />
        </mxCell>
        <mxCell id="2HKKLLd31zWiuBAIn60T-41" value="" style="endArrow=none;html=1;fontFamily=Poppins;fontSource=https%3A%2F%2Ffonts.googleapis.com%2Fcss%3Ffamily%3DPoppins;startSize=10;endSize=14;sourcePerimeterSpacing=7;targetPerimeterSpacing=7;strokeColor=#B3B3B3;strokeWidth=1;align=right;verticalAlign=middle;opacity=60;" parent="2HKKLLd31zWiuBAIn60T-1" edge="1">
          <mxGeometry width="50" height="50" relative="1" as="geometry">
            <mxPoint x="740" y="1210" as="sourcePoint" />
            <mxPoint x="740" y="340" as="targetPoint" />
          </mxGeometry>
        </mxCell>
        <mxCell id="2HKKLLd31zWiuBAIn60T-42" value="&lt;font style=&quot;font-size: 9px&quot;&gt;yes&lt;/font&gt;" style="endArrow=blockThin;html=1;startSize=14;endSize=14;sourcePerimeterSpacing=8;targetPerimeterSpacing=8;strokeColor=#B3B3B3;rounded=1;strokeWidth=1;endFill=1;opacity=60;fontFamily=Poppins;fontSource=https%3A%2F%2Ffonts.googleapis.com%2Fcss%3Ffamily%3DPoppins;verticalAlign=middle;entryX=1;entryY=0.5;entryDx=0;entryDy=0;exitX=0.021;exitY=0.518;exitDx=0;exitDy=0;exitPerimeter=0;" parent="2HKKLLd31zWiuBAIn60T-1" target="2HKKLLd31zWiuBAIn60T-40" edge="1">
          <mxGeometry x="-0.2" width="50" height="50" relative="1" as="geometry">
            <mxPoint x="210.25000000000023" y="550.6300000000001" as="sourcePoint" />
            <mxPoint x="144.61" y="549.37" as="targetPoint" />
            <mxPoint as="offset" />
          </mxGeometry>
        </mxCell>
        <mxCell id="2HKKLLd31zWiuBAIn60T-43" value="" style="endArrow=blockThin;html=1;startSize=14;endSize=14;sourcePerimeterSpacing=8;targetPerimeterSpacing=8;strokeColor=#B3B3B3;rounded=1;strokeWidth=1;endFill=1;opacity=60;entryX=0.484;entryY=-0.027;entryDx=0;entryDy=0;entryPerimeter=0;" parent="2HKKLLd31zWiuBAIn60T-1" target="2HKKLLd31zWiuBAIn60T-18" edge="1">
          <mxGeometry width="50" height="50" relative="1" as="geometry">
            <mxPoint x="415.9999999999998" y="1140" as="sourcePoint" />
            <mxPoint x="416" y="1190" as="targetPoint" />
          </mxGeometry>
        </mxCell>
        <mxCell id="2HKKLLd31zWiuBAIn60T-44" value="" style="endArrow=blockThin;html=1;fontFamily=Poppins;fontSource=https%3A%2F%2Ffonts.googleapis.com%2Fcss%3Ffamily%3DPoppins;startSize=10;endSize=14;sourcePerimeterSpacing=7;targetPerimeterSpacing=7;strokeColor=#B3B3B3;strokeWidth=1;align=right;verticalAlign=middle;opacity=60;entryX=0;entryY=0.61;entryDx=0;entryDy=0;entryPerimeter=0;endFill=1;" parent="2HKKLLd31zWiuBAIn60T-1" target="2HKKLLd31zWiuBAIn60T-18" edge="1">
          <mxGeometry width="50" height="50" relative="1" as="geometry">
            <mxPoint x="90" y="1210" as="sourcePoint" />
            <mxPoint x="60" y="1217.9099999999999" as="targetPoint" />
            <Array as="points">
              <mxPoint x="90" y="1218" />
            </Array>
          </mxGeometry>
        </mxCell>
        <mxCell id="2HKKLLd31zWiuBAIn60T-46" value="&lt;font style=&quot;font-size: 9px&quot;&gt;no&lt;/font&gt;" style="endArrow=blockThin;html=1;startSize=14;endSize=14;sourcePerimeterSpacing=8;targetPerimeterSpacing=8;strokeColor=#B3B3B3;rounded=1;strokeWidth=1;endFill=1;opacity=60;fontFamily=Poppins;fontSource=https%3A%2F%2Ffonts.googleapis.com%2Fcss%3Ffamily%3DPoppins;verticalAlign=middle;exitX=1;exitY=0.5;exitDx=0;exitDy=0;" parent="2HKKLLd31zWiuBAIn60T-1" edge="1">
          <mxGeometry x="-0.1999" width="50" height="50" relative="1" as="geometry">
            <mxPoint x="462.5" y="894.2600000000002" as="sourcePoint" />
            <mxPoint x="538" y="894" as="targetPoint" />
            <mxPoint as="offset" />
            <Array as="points" />
          </mxGeometry>
        </mxCell>
        <mxCell id="2HKKLLd31zWiuBAIn60T-47" value="&lt;font face=&quot;Poppins&quot; style=&quot;font-size: 9px&quot;&gt;Import api functions and&lt;br&gt;execute MdLinks&amp;nbsp; function&lt;br&gt;(path, options)&lt;br&gt;&lt;/font&gt;" style="shape=parallelogram;perimeter=parallelogramPerimeter;whiteSpace=wrap;html=1;fixedSize=1;shadow=0;glass=1;sketch=0;hachureGap=4;pointerEvents=0;fillColor=#FFE8FD;strokeColor=none;rounded=1;arcSize=22;align=center;gradientColor=#ffffff;" parent="2HKKLLd31zWiuBAIn60T-1" vertex="1">
          <mxGeometry x="340" y="3" width="150" height="70" as="geometry" />
        </mxCell>
        <mxCell id="2HKKLLd31zWiuBAIn60T-48" value="" style="endArrow=blockThin;html=1;startSize=14;endSize=14;sourcePerimeterSpacing=8;targetPerimeterSpacing=8;strokeColor=#B3B3B3;rounded=1;strokeWidth=1;endFill=1;opacity=60;" parent="2HKKLLd31zWiuBAIn60T-1" edge="1">
          <mxGeometry width="50" height="50" relative="1" as="geometry">
            <mxPoint x="416.1099999999999" y="-37" as="sourcePoint" />
            <mxPoint x="416.1099999999999" y="3" as="targetPoint" />
          </mxGeometry>
        </mxCell>
        <mxCell id="aPsuuMWM1Kuvk11ofeZi-0" value="&lt;font face=&quot;Poppins&quot; data-font-src=&quot;https://fonts.googleapis.com/css?family=Poppins&quot; style=&quot;font-size: 12px&quot; color=&quot;#c5a3c7&quot;&gt;@mysticBel&lt;/font&gt;" style="text;html=1;resizable=0;autosize=1;align=center;verticalAlign=middle;points=[];fillColor=none;strokeColor=none;rounded=0;fontSize=9;" vertex="1" parent="2HKKLLd31zWiuBAIn60T-1">
          <mxGeometry x="658" y="1329" width="80" height="17" as="geometry" />
        </mxCell>
        <mxCell id="ItGzA9zKGtQzRtP4-NaQ-0" value="&lt;b&gt;&lt;font face=&quot;Poppins&quot; data-font-src=&quot;https://fonts.googleapis.com/css?family=Poppins&quot; style=&quot;font-size: 32px&quot; color=&quot;#c695cc&quot;&gt;API&amp;nbsp; Flowchart&amp;nbsp;&lt;/font&gt;&lt;/b&gt;" style="text;html=1;resizable=0;autosize=1;align=center;verticalAlign=middle;points=[];fillColor=none;strokeColor=none;rounded=0;fontSize=9;" vertex="1" parent="2HKKLLd31zWiuBAIn60T-1">
          <mxGeometry x="299.75" y="-150" width="239" height="24" as="geometry" />
        </mxCell>
        <mxCell id="ItGzA9zKGtQzRtP4-NaQ-2" value="&lt;font style=&quot;font-size: 10px&quot;&gt;Links not found :c&lt;/font&gt;" style="rounded=1;whiteSpace=wrap;html=1;shadow=0;glass=0;sketch=0;hachureGap=4;pointerEvents=0;fontFamily=Poppins;fontSource=https%3A%2F%2Ffonts.googleapis.com%2Fcss%3Ffamily%3DPoppins;strokeColor=none;fillColor=#FFFFFF;gradientDirection=north;gradientColor=#BAC8FF;" vertex="1" parent="2HKKLLd31zWiuBAIn60T-1">
          <mxGeometry x="540" y="635" width="110" height="40" as="geometry" />
        </mxCell>
        <mxCell id="ItGzA9zKGtQzRtP4-NaQ-3" value="" style="endArrow=blockThin;html=1;fontFamily=Poppins;fontSource=https%3A%2F%2Ffonts.googleapis.com%2Fcss%3Ffamily%3DPoppins;startSize=10;endSize=14;sourcePerimeterSpacing=7;targetPerimeterSpacing=7;strokeColor=#B3B3B3;strokeWidth=1;align=right;verticalAlign=middle;opacity=60;endFill=1;exitX=1;exitY=0.5;exitDx=0;exitDy=0;" edge="1" parent="2HKKLLd31zWiuBAIn60T-1">
          <mxGeometry width="50" height="50" relative="1" as="geometry">
            <mxPoint x="650" y="654.8" as="sourcePoint" />
            <mxPoint x="740" y="654.8" as="targetPoint" />
          </mxGeometry>
        </mxCell>
      </root>
    </mxGraphModel>
  </diagram>
  <diagram name="Copy of Page-2" id="uEBqDSuAt-3HZmGn4ib2">
    <mxGraphModel dx="1382" dy="1195" grid="0" gridSize="10" guides="1" tooltips="1" connect="1" arrows="1" fold="1" page="0" pageScale="1" pageWidth="827" pageHeight="1169" math="0" shadow="0">
      <root>
        <mxCell id="QL2ki2FNUlzPY13-rrIB-0" />
        <mxCell id="QL2ki2FNUlzPY13-rrIB-1" parent="QL2ki2FNUlzPY13-rrIB-0" />
        <mxCell id="QL2ki2FNUlzPY13-rrIB-2" value="&lt;font style=&quot;font-size: 14px&quot; color=&quot;#fcfcfc&quot; face=&quot;Poppins&quot; data-font-src=&quot;https://fonts.googleapis.com/css?family=Poppins&quot;&gt;&lt;b&gt;START&lt;/b&gt;&lt;/font&gt;" style="rounded=1;whiteSpace=wrap;html=1;hachureGap=4;pointerEvents=0;fillColor=#4EC2CF;strokeColor=none;shadow=0;glass=0;sketch=0;gradientDirection=north;gradientColor=#89E3D2;" vertex="1" parent="QL2ki2FNUlzPY13-rrIB-1">
          <mxGeometry x="344.5" y="-66" width="143.5" height="30" as="geometry" />
        </mxCell>
        <mxCell id="QL2ki2FNUlzPY13-rrIB-3" value="&lt;font face=&quot;Poppins&quot; data-font-src=&quot;https://fonts.googleapis.com/css?family=Poppins&quot; style=&quot;font-size: 10px&quot;&gt;insert Path&lt;/font&gt;" style="shape=parallelogram;perimeter=parallelogramPerimeter;whiteSpace=wrap;html=1;fixedSize=1;shadow=0;glass=1;sketch=0;hachureGap=4;pointerEvents=0;fillColor=#CCFFE6;strokeColor=none;rounded=1;arcSize=24;gradientColor=#ffffff;" vertex="1" parent="QL2ki2FNUlzPY13-rrIB-1">
          <mxGeometry x="355.25" y="110" width="122.5" height="40" as="geometry" />
        </mxCell>
        <mxCell id="QL2ki2FNUlzPY13-rrIB-4" value="&lt;font face=&quot;Poppins&quot;&gt;&lt;span style=&quot;font-size: 10px&quot;&gt;resolve Path to&lt;br&gt;&amp;nbsp;Absolute Path&lt;/span&gt;&lt;/font&gt;" style="shape=parallelogram;perimeter=parallelogramPerimeter;whiteSpace=wrap;html=1;fixedSize=1;shadow=0;glass=1;sketch=0;hachureGap=4;pointerEvents=0;fillColor=#CCFFE6;strokeColor=none;rounded=1;arcSize=22;align=center;gradientColor=#ffffff;" vertex="1" parent="QL2ki2FNUlzPY13-rrIB-1">
          <mxGeometry x="351.25" y="190" width="130" height="50" as="geometry" />
        </mxCell>
        <mxCell id="QL2ki2FNUlzPY13-rrIB-5" value="" style="endArrow=blockThin;html=1;startSize=14;endSize=14;sourcePerimeterSpacing=8;targetPerimeterSpacing=8;strokeColor=#B3B3B3;rounded=1;strokeWidth=1;endFill=1;opacity=60;" edge="1" parent="QL2ki2FNUlzPY13-rrIB-1">
          <mxGeometry width="50" height="50" relative="1" as="geometry">
            <mxPoint x="416.29999999999995" y="70" as="sourcePoint" />
            <mxPoint x="416.29999999999995" y="110" as="targetPoint" />
          </mxGeometry>
        </mxCell>
        <mxCell id="QL2ki2FNUlzPY13-rrIB-6" value="&lt;font face=&quot;Poppins&quot; data-font-src=&quot;https://fonts.googleapis.com/css?family=Poppins&quot; style=&quot;font-size: 10px&quot;&gt;&lt;font&gt;Path &lt;br&gt;exists?&lt;/font&gt;&lt;/font&gt;" style="rhombus;whiteSpace=wrap;html=1;rounded=1;shadow=0;glass=0;sketch=0;hachureGap=4;pointerEvents=0;strokeColor=none;fillColor=default;gradientDirection=north;arcSize=8;gradientColor=#FFF2CC;" vertex="1" parent="QL2ki2FNUlzPY13-rrIB-1">
          <mxGeometry x="375" y="280" width="87.5" height="70" as="geometry" />
        </mxCell>
        <mxCell id="QL2ki2FNUlzPY13-rrIB-7" value="&lt;font style=&quot;font-size: 9px&quot;&gt;yes&lt;/font&gt;" style="endArrow=blockThin;html=1;startSize=10;endSize=14;sourcePerimeterSpacing=7;targetPerimeterSpacing=7;strokeColor=#B3B3B3;rounded=1;strokeWidth=1;endFill=1;opacity=60;fontFamily=Poppins;fontSource=https%3A%2F%2Ffonts.googleapis.com%2Fcss%3Ffamily%3DPoppins;verticalAlign=middle;labelPosition=center;verticalLabelPosition=middle;align=center;" edge="1" parent="QL2ki2FNUlzPY13-rrIB-1">
          <mxGeometry x="-0.2157" width="50" height="50" relative="1" as="geometry">
            <mxPoint x="420.24" y="350" as="sourcePoint" />
            <mxPoint x="420" y="401" as="targetPoint" />
            <mxPoint as="offset" />
          </mxGeometry>
        </mxCell>
        <mxCell id="QL2ki2FNUlzPY13-rrIB-8" value="&lt;font face=&quot;Poppins&quot; data-font-src=&quot;https://fonts.googleapis.com/css?family=Poppins&quot; style=&quot;font-size: 10px&quot;&gt;&lt;font&gt;&lt;br&gt;&lt;/font&gt;&lt;font&gt;&amp;nbsp;Directory&lt;br&gt;&amp;nbsp;exists?&lt;/font&gt;&lt;/font&gt;" style="rhombus;whiteSpace=wrap;html=1;rounded=1;shadow=0;glass=0;sketch=0;hachureGap=4;pointerEvents=0;strokeColor=none;fillColor=default;gradientDirection=north;arcSize=8;gradientColor=#FFF2CC;" vertex="1" parent="QL2ki2FNUlzPY13-rrIB-1">
          <mxGeometry x="373.75" y="400" width="90" height="70" as="geometry" />
        </mxCell>
        <mxCell id="QL2ki2FNUlzPY13-rrIB-9" value="&lt;font style=&quot;font-size: 9px&quot;&gt;yes&lt;/font&gt;" style="endArrow=blockThin;html=1;startSize=14;endSize=14;sourcePerimeterSpacing=8;targetPerimeterSpacing=8;strokeColor=#B3B3B3;rounded=1;strokeWidth=1;endFill=1;opacity=60;fontFamily=Poppins;fontSource=https%3A%2F%2Ffonts.googleapis.com%2Fcss%3Ffamily%3DPoppins;verticalAlign=middle;entryX=1;entryY=0.5;entryDx=0;entryDy=0;exitX=0.021;exitY=0.518;exitDx=0;exitDy=0;exitPerimeter=0;" edge="1" parent="QL2ki2FNUlzPY13-rrIB-1" source="QL2ki2FNUlzPY13-rrIB-8" target="QL2ki2FNUlzPY13-rrIB-10">
          <mxGeometry x="-0.2" width="50" height="50" relative="1" as="geometry">
            <mxPoint x="380.24" y="440" as="sourcePoint" />
            <mxPoint x="380.0000000000002" y="490" as="targetPoint" />
            <mxPoint as="offset" />
          </mxGeometry>
        </mxCell>
        <mxCell id="QL2ki2FNUlzPY13-rrIB-10" value="&lt;font face=&quot;Poppins&quot;&gt;&lt;span style=&quot;font-size: 10px&quot;&gt;check Directory&lt;br&gt;&lt;/span&gt;&lt;/font&gt;" style="shape=parallelogram;perimeter=parallelogramPerimeter;whiteSpace=wrap;html=1;fixedSize=1;shadow=0;glass=1;sketch=0;hachureGap=4;pointerEvents=0;fillColor=#CCFFE6;strokeColor=none;rounded=1;arcSize=21;align=center;gradientColor=#ffffff;" vertex="1" parent="QL2ki2FNUlzPY13-rrIB-1">
          <mxGeometry x="190.5" y="405" width="129.5" height="60" as="geometry" />
        </mxCell>
        <mxCell id="QL2ki2FNUlzPY13-rrIB-11" value="" style="endArrow=block;html=1;startSize=14;endSize=14;sourcePerimeterSpacing=8;targetPerimeterSpacing=8;strokeColor=#B3B3B3;rounded=1;strokeWidth=1;endFill=1;opacity=60;exitX=0.5;exitY=1;exitDx=0;exitDy=0;entryX=0.5;entryY=0;entryDx=0;entryDy=0;" edge="1" parent="QL2ki2FNUlzPY13-rrIB-1" source="QL2ki2FNUlzPY13-rrIB-10" target="QL2ki2FNUlzPY13-rrIB-12">
          <mxGeometry width="50" height="50" relative="1" as="geometry">
            <mxPoint x="350" y="550" as="sourcePoint" />
            <mxPoint x="320" y="549.58" as="targetPoint" />
          </mxGeometry>
        </mxCell>
        <mxCell id="QL2ki2FNUlzPY13-rrIB-12" value="&lt;font face=&quot;Poppins&quot; data-font-src=&quot;https://fonts.googleapis.com/css?family=Poppins&quot; style=&quot;font-size: 10px&quot;&gt;Is&amp;nbsp; Directory&lt;br&gt;empty?&lt;/font&gt;" style="rhombus;whiteSpace=wrap;html=1;rounded=1;shadow=0;glass=0;sketch=0;hachureGap=4;pointerEvents=0;strokeColor=none;fillColor=default;gradientDirection=north;arcSize=8;gradientColor=#FFF2CC;" vertex="1" parent="QL2ki2FNUlzPY13-rrIB-1">
          <mxGeometry x="210.25" y="507.5" width="90" height="85" as="geometry" />
        </mxCell>
        <mxCell id="QL2ki2FNUlzPY13-rrIB-13" value="&lt;font style=&quot;font-size: 9px&quot;&gt;no&lt;/font&gt;" style="endArrow=blockThin;html=1;startSize=14;endSize=14;sourcePerimeterSpacing=8;targetPerimeterSpacing=8;strokeColor=#B3B3B3;rounded=1;strokeWidth=1;endFill=1;opacity=60;fontFamily=Poppins;fontSource=https%3A%2F%2Ffonts.googleapis.com%2Fcss%3Ffamily%3DPoppins;verticalAlign=middle;exitX=1;exitY=0.5;exitDx=0;exitDy=0;" edge="1" parent="QL2ki2FNUlzPY13-rrIB-1" source="QL2ki2FNUlzPY13-rrIB-12">
          <mxGeometry x="-0.1999" width="50" height="50" relative="1" as="geometry">
            <mxPoint x="320.24" y="542.5" as="sourcePoint" />
            <mxPoint x="360" y="550" as="targetPoint" />
            <mxPoint as="offset" />
            <Array as="points" />
          </mxGeometry>
        </mxCell>
        <mxCell id="QL2ki2FNUlzPY13-rrIB-14" value="" style="endArrow=blockThin;html=1;startSize=14;endSize=14;sourcePerimeterSpacing=8;targetPerimeterSpacing=8;strokeColor=#B3B3B3;rounded=1;strokeWidth=1;endFill=1;opacity=60;" edge="1" parent="QL2ki2FNUlzPY13-rrIB-1">
          <mxGeometry width="50" height="50" relative="1" as="geometry">
            <mxPoint x="416.0499999999997" y="150" as="sourcePoint" />
            <mxPoint x="416.0499999999997" y="190" as="targetPoint" />
          </mxGeometry>
        </mxCell>
        <mxCell id="QL2ki2FNUlzPY13-rrIB-15" value="" style="endArrow=blockThin;html=1;startSize=14;endSize=14;sourcePerimeterSpacing=8;targetPerimeterSpacing=8;strokeColor=#B3B3B3;rounded=1;strokeWidth=1;endFill=1;opacity=60;" edge="1" parent="QL2ki2FNUlzPY13-rrIB-1">
          <mxGeometry width="50" height="50" relative="1" as="geometry">
            <mxPoint x="417.08000000000015" y="240" as="sourcePoint" />
            <mxPoint x="417.08000000000015" y="280" as="targetPoint" />
          </mxGeometry>
        </mxCell>
        <mxCell id="QL2ki2FNUlzPY13-rrIB-16" value="&lt;font style=&quot;font-size: 9px&quot;&gt;no&lt;/font&gt;" style="endArrow=blockThin;html=1;startSize=14;endSize=14;sourcePerimeterSpacing=8;targetPerimeterSpacing=8;strokeColor=#B3B3B3;rounded=1;strokeWidth=1;endFill=1;opacity=60;fontFamily=Poppins;fontSource=https%3A%2F%2Ffonts.googleapis.com%2Fcss%3Ffamily%3DPoppins;verticalAlign=middle;labelPosition=center;verticalLabelPosition=middle;align=center;entryX=0;entryY=0.5;entryDx=0;entryDy=0;" edge="1" parent="QL2ki2FNUlzPY13-rrIB-1" target="QL2ki2FNUlzPY13-rrIB-17">
          <mxGeometry x="-0.1657" width="50" height="50" relative="1" as="geometry">
            <mxPoint x="462.73999999999955" y="320" as="sourcePoint" />
            <mxPoint x="600" y="320" as="targetPoint" />
            <mxPoint as="offset" />
            <Array as="points" />
          </mxGeometry>
        </mxCell>
        <mxCell id="QL2ki2FNUlzPY13-rrIB-17" value="&lt;font style=&quot;font-size: 10px&quot;&gt;This path does &lt;br&gt;not exist&lt;/font&gt;" style="rounded=1;whiteSpace=wrap;html=1;shadow=0;glass=0;sketch=0;hachureGap=4;pointerEvents=0;fontFamily=Poppins;fontSource=https%3A%2F%2Ffonts.googleapis.com%2Fcss%3Ffamily%3DPoppins;strokeColor=none;fillColor=#FFFFFF;gradientDirection=north;gradientColor=#99CCFF;" vertex="1" parent="QL2ki2FNUlzPY13-rrIB-1">
          <mxGeometry x="680" y="300" width="120" height="40" as="geometry" />
        </mxCell>
        <mxCell id="QL2ki2FNUlzPY13-rrIB-18" value="&lt;font style=&quot;font-size: 14px&quot; color=&quot;#fcfcfc&quot; face=&quot;Poppins&quot; data-font-src=&quot;https://fonts.googleapis.com/css?family=Poppins&quot;&gt;&lt;b&gt;END&lt;/b&gt;&lt;/font&gt;" style="rounded=1;whiteSpace=wrap;html=1;hachureGap=4;pointerEvents=0;fillColor=#4EC2CF;strokeColor=none;shadow=1;glass=0;sketch=0;gradientDirection=north;gradientColor=#89E3D2;" vertex="1" parent="QL2ki2FNUlzPY13-rrIB-1">
          <mxGeometry x="348.25" y="1200" width="140" height="30" as="geometry" />
        </mxCell>
        <mxCell id="QL2ki2FNUlzPY13-rrIB-19" value="&lt;font face=&quot;Poppins&quot; style=&quot;font-size: 9px&quot;&gt;&lt;span style=&quot;font-size: 10px&quot;&gt;filter array to get&lt;br&gt;only MD files&lt;/span&gt;&lt;/font&gt;" style="shape=parallelogram;perimeter=parallelogramPerimeter;whiteSpace=wrap;html=1;fixedSize=1;shadow=0;glass=1;sketch=0;hachureGap=4;pointerEvents=0;fillColor=#CCFFE6;strokeColor=none;rounded=1;arcSize=21;align=center;gradientColor=#ffffff;" vertex="1" parent="QL2ki2FNUlzPY13-rrIB-1">
          <mxGeometry x="348.25" y="520" width="141.75" height="60" as="geometry" />
        </mxCell>
        <mxCell id="QL2ki2FNUlzPY13-rrIB-20" value="&lt;font style=&quot;font-size: 9px&quot;&gt;no&lt;/font&gt;" style="endArrow=blockThin;html=1;startSize=10;endSize=14;sourcePerimeterSpacing=7;targetPerimeterSpacing=7;strokeColor=#B3B3B3;rounded=1;strokeWidth=1;endFill=1;opacity=60;fontFamily=Poppins;fontSource=https%3A%2F%2Ffonts.googleapis.com%2Fcss%3Ffamily%3DPoppins;verticalAlign=middle;labelPosition=center;verticalLabelPosition=middle;align=center;" edge="1" parent="QL2ki2FNUlzPY13-rrIB-1">
          <mxGeometry x="-0.2157" width="50" height="50" relative="1" as="geometry">
            <mxPoint x="419.0000000000002" y="469" as="sourcePoint" />
            <mxPoint x="418.5499999999997" y="520" as="targetPoint" />
            <mxPoint as="offset" />
          </mxGeometry>
        </mxCell>
        <mxCell id="QL2ki2FNUlzPY13-rrIB-21" value="&lt;font face=&quot;Poppins&quot; data-font-src=&quot;https://fonts.googleapis.com/css?family=Poppins&quot; style=&quot;font-size: 9px&quot;&gt;&lt;font&gt;Are there&amp;nbsp;&lt;br&gt;&amp;nbsp;MD files&lt;/font&gt;&lt;font&gt;?&lt;/font&gt;&lt;/font&gt;" style="rhombus;whiteSpace=wrap;html=1;rounded=1;shadow=0;glass=0;sketch=0;hachureGap=4;pointerEvents=0;strokeColor=none;fillColor=default;gradientDirection=north;arcSize=8;gradientColor=#FFF2CC;" vertex="1" parent="QL2ki2FNUlzPY13-rrIB-1">
          <mxGeometry x="374.5" y="620" width="87.5" height="70" as="geometry" />
        </mxCell>
        <mxCell id="QL2ki2FNUlzPY13-rrIB-22" value="" style="endArrow=blockThin;html=1;startSize=14;endSize=14;sourcePerimeterSpacing=8;targetPerimeterSpacing=8;strokeColor=#B3B3B3;rounded=1;strokeWidth=1;endFill=1;opacity=60;" edge="1" parent="QL2ki2FNUlzPY13-rrIB-1">
          <mxGeometry width="50" height="50" relative="1" as="geometry">
            <mxPoint x="418.5499999999997" y="580" as="sourcePoint" />
            <mxPoint x="418.5499999999997" y="620" as="targetPoint" />
          </mxGeometry>
        </mxCell>
        <mxCell id="QL2ki2FNUlzPY13-rrIB-23" value="&lt;font style=&quot;font-size: 9px&quot;&gt;yes&lt;/font&gt;" style="endArrow=blockThin;html=1;startSize=10;endSize=14;sourcePerimeterSpacing=7;targetPerimeterSpacing=7;strokeColor=#B3B3B3;rounded=1;strokeWidth=1;endFill=1;opacity=60;fontFamily=Poppins;fontSource=https%3A%2F%2Ffonts.googleapis.com%2Fcss%3Ffamily%3DPoppins;verticalAlign=middle;labelPosition=center;verticalLabelPosition=middle;align=center;" edge="1" parent="QL2ki2FNUlzPY13-rrIB-1">
          <mxGeometry x="-0.2157" width="50" height="50" relative="1" as="geometry">
            <mxPoint x="418.78999999999974" y="690" as="sourcePoint" />
            <mxPoint x="418.5499999999997" y="741.0000000000002" as="targetPoint" />
            <mxPoint as="offset" />
          </mxGeometry>
        </mxCell>
        <mxCell id="QL2ki2FNUlzPY13-rrIB-24" value="&lt;font face=&quot;Poppins&quot; data-font-src=&quot;https://fonts.googleapis.com/css?family=Poppins&quot; style=&quot;font-size: 9px&quot;&gt;&lt;font&gt;Are there &lt;br&gt;URLs&amp;nbsp;&lt;/font&gt;&lt;font&gt;?&lt;/font&gt;&lt;/font&gt;" style="rhombus;whiteSpace=wrap;html=1;rounded=1;shadow=0;glass=0;sketch=0;hachureGap=4;pointerEvents=0;strokeColor=none;fillColor=default;gradientDirection=north;arcSize=8;gradientColor=#FFF2CC;" vertex="1" parent="QL2ki2FNUlzPY13-rrIB-1">
          <mxGeometry x="375" y="740" width="87.5" height="70" as="geometry" />
        </mxCell>
        <mxCell id="QL2ki2FNUlzPY13-rrIB-25" value="&lt;font face=&quot;Poppins&quot; data-font-src=&quot;https://fonts.googleapis.com/css?family=Poppins&quot; style=&quot;font-size: 9px&quot;&gt;&lt;font&gt;validate = TRUE&amp;nbsp;&lt;/font&gt;&lt;font&gt;?&lt;/font&gt;&lt;/font&gt;" style="rhombus;whiteSpace=wrap;html=1;rounded=1;shadow=0;glass=0;sketch=0;hachureGap=4;pointerEvents=0;strokeColor=none;fillColor=default;gradientDirection=north;arcSize=8;gradientColor=#FFF2CC;" vertex="1" parent="QL2ki2FNUlzPY13-rrIB-1">
          <mxGeometry x="374.5" y="860" width="87.5" height="70" as="geometry" />
        </mxCell>
        <mxCell id="QL2ki2FNUlzPY13-rrIB-26" value="&lt;font style=&quot;font-size: 9px&quot;&gt;yes&lt;/font&gt;" style="endArrow=blockThin;html=1;startSize=10;endSize=14;sourcePerimeterSpacing=7;targetPerimeterSpacing=7;strokeColor=#B3B3B3;rounded=1;strokeWidth=1;endFill=1;opacity=60;fontFamily=Poppins;fontSource=https%3A%2F%2Ffonts.googleapis.com%2Fcss%3Ffamily%3DPoppins;verticalAlign=middle;labelPosition=center;verticalLabelPosition=middle;align=center;" edge="1" parent="QL2ki2FNUlzPY13-rrIB-1">
          <mxGeometry x="-0.2157" width="50" height="50" relative="1" as="geometry">
            <mxPoint x="418.8699999999999" y="810" as="sourcePoint" />
            <mxPoint x="418.6300000000001" y="861" as="targetPoint" />
            <mxPoint as="offset" />
          </mxGeometry>
        </mxCell>
        <mxCell id="QL2ki2FNUlzPY13-rrIB-27" value="&lt;font face=&quot;Poppins&quot;&gt;&lt;span style=&quot;font-size: 10px&quot;&gt;HTTP&lt;br&gt;&amp;nbsp;REQUEST&lt;/span&gt;&lt;/font&gt;" style="shape=parallelogram;perimeter=parallelogramPerimeter;whiteSpace=wrap;html=1;fixedSize=1;shadow=0;glass=1;sketch=0;hachureGap=4;pointerEvents=0;fillColor=#CCFFE6;strokeColor=none;rounded=1;arcSize=22;align=center;gradientColor=#ffffff;" vertex="1" parent="QL2ki2FNUlzPY13-rrIB-1">
          <mxGeometry x="353.25" y="980" width="130" height="50" as="geometry" />
        </mxCell>
        <mxCell id="QL2ki2FNUlzPY13-rrIB-28" value="&lt;font face=&quot;Poppins&quot; style=&quot;font-size: 9px&quot;&gt;return array&amp;nbsp;:&amp;nbsp;&lt;br&gt;href, text, file, status, ok/fail&lt;br&gt;&lt;/font&gt;" style="shape=parallelogram;perimeter=parallelogramPerimeter;whiteSpace=wrap;html=1;fixedSize=1;shadow=0;glass=1;sketch=0;hachureGap=4;pointerEvents=0;fillColor=#CCFFE6;strokeColor=none;rounded=1;arcSize=22;align=center;gradientColor=#ffffff;" vertex="1" parent="QL2ki2FNUlzPY13-rrIB-1">
          <mxGeometry x="337.75" y="1070" width="150" height="70" as="geometry" />
        </mxCell>
        <mxCell id="QL2ki2FNUlzPY13-rrIB-29" value="&lt;font style=&quot;font-size: 9px&quot;&gt;yes&lt;/font&gt;" style="endArrow=blockThin;html=1;startSize=10;endSize=14;sourcePerimeterSpacing=7;targetPerimeterSpacing=7;strokeColor=#B3B3B3;rounded=1;strokeWidth=1;endFill=1;opacity=60;fontFamily=Poppins;fontSource=https%3A%2F%2Ffonts.googleapis.com%2Fcss%3Ffamily%3DPoppins;verticalAlign=middle;labelPosition=center;verticalLabelPosition=middle;align=center;" edge="1" parent="QL2ki2FNUlzPY13-rrIB-1">
          <mxGeometry x="-0.2157" width="50" height="50" relative="1" as="geometry">
            <mxPoint x="418.3699999999999" y="929" as="sourcePoint" />
            <mxPoint x="418.13000000000034" y="980" as="targetPoint" />
            <mxPoint as="offset" />
          </mxGeometry>
        </mxCell>
        <mxCell id="QL2ki2FNUlzPY13-rrIB-30" value="" style="endArrow=blockThin;html=1;startSize=14;endSize=14;sourcePerimeterSpacing=8;targetPerimeterSpacing=8;strokeColor=#B3B3B3;rounded=1;strokeWidth=1;endFill=1;opacity=60;" edge="1" parent="QL2ki2FNUlzPY13-rrIB-1">
          <mxGeometry width="50" height="50" relative="1" as="geometry">
            <mxPoint x="418.1500000000001" y="1030" as="sourcePoint" />
            <mxPoint x="418.1500000000001" y="1070" as="targetPoint" />
          </mxGeometry>
        </mxCell>
        <mxCell id="QL2ki2FNUlzPY13-rrIB-31" value="&lt;font style=&quot;font-size: 10px&quot;&gt;Links not found :c&lt;/font&gt;" style="rounded=1;whiteSpace=wrap;html=1;shadow=0;glass=0;sketch=0;hachureGap=4;pointerEvents=0;fontFamily=Poppins;fontSource=https%3A%2F%2Ffonts.googleapis.com%2Fcss%3Ffamily%3DPoppins;strokeColor=none;fillColor=#FFFFFF;gradientDirection=north;gradientColor=#99CCFF;" vertex="1" parent="QL2ki2FNUlzPY13-rrIB-1">
          <mxGeometry x="540" y="755" width="110" height="40" as="geometry" />
        </mxCell>
        <mxCell id="QL2ki2FNUlzPY13-rrIB-32" value="&lt;span style=&quot;font-size: 9px&quot;&gt;return array :&lt;br&gt;&amp;nbsp;&lt;/span&gt;&lt;span style=&quot;font-size: 9px&quot;&gt;href, text, file&lt;/span&gt;" style="rounded=1;whiteSpace=wrap;html=1;shadow=0;glass=0;sketch=0;hachureGap=4;pointerEvents=0;fontFamily=Poppins;fontSource=https%3A%2F%2Ffonts.googleapis.com%2Fcss%3Ffamily%3DPoppins;strokeColor=none;fillColor=#FFFFFF;gradientDirection=north;gradientColor=#99CCFF;" vertex="1" parent="QL2ki2FNUlzPY13-rrIB-1">
          <mxGeometry x="538" y="867.5" width="120" height="55" as="geometry" />
        </mxCell>
        <mxCell id="QL2ki2FNUlzPY13-rrIB-33" value="&lt;font style=&quot;font-size: 9px&quot;&gt;no&lt;/font&gt;" style="endArrow=blockThin;html=1;startSize=14;endSize=14;sourcePerimeterSpacing=8;targetPerimeterSpacing=8;strokeColor=#B3B3B3;rounded=1;strokeWidth=1;endFill=1;opacity=60;fontFamily=Poppins;fontSource=https%3A%2F%2Ffonts.googleapis.com%2Fcss%3Ffamily%3DPoppins;verticalAlign=middle;exitX=0.98;exitY=0.499;exitDx=0;exitDy=0;exitPerimeter=0;entryX=0;entryY=0.5;entryDx=0;entryDy=0;" edge="1" parent="QL2ki2FNUlzPY13-rrIB-1" source="QL2ki2FNUlzPY13-rrIB-21" target="QL2ki2FNUlzPY13-rrIB-49">
          <mxGeometry x="-0.1999" width="50" height="50" relative="1" as="geometry">
            <mxPoint x="462" y="654.8" as="sourcePoint" />
            <mxPoint x="535" y="654" as="targetPoint" />
            <mxPoint as="offset" />
            <Array as="points" />
          </mxGeometry>
        </mxCell>
        <mxCell id="QL2ki2FNUlzPY13-rrIB-34" value="&lt;font style=&quot;font-size: 9px&quot;&gt;no&lt;/font&gt;" style="endArrow=blockThin;html=1;startSize=14;endSize=14;sourcePerimeterSpacing=8;targetPerimeterSpacing=8;strokeColor=#B3B3B3;rounded=1;strokeWidth=1;endFill=1;opacity=60;fontFamily=Poppins;fontSource=https%3A%2F%2Ffonts.googleapis.com%2Fcss%3Ffamily%3DPoppins;verticalAlign=middle;exitX=1;exitY=0.5;exitDx=0;exitDy=0;entryX=0.006;entryY=0.532;entryDx=0;entryDy=0;entryPerimeter=0;" edge="1" parent="QL2ki2FNUlzPY13-rrIB-1" target="QL2ki2FNUlzPY13-rrIB-31">
          <mxGeometry x="-0.1999" width="50" height="50" relative="1" as="geometry">
            <mxPoint x="462" y="774.8000000000002" as="sourcePoint" />
            <mxPoint x="521.75" y="774.8" as="targetPoint" />
            <mxPoint as="offset" />
            <Array as="points" />
          </mxGeometry>
        </mxCell>
        <mxCell id="QL2ki2FNUlzPY13-rrIB-35" value="" style="endArrow=blockThin;html=1;fontFamily=Poppins;fontSource=https%3A%2F%2Ffonts.googleapis.com%2Fcss%3Ffamily%3DPoppins;startSize=10;endSize=14;sourcePerimeterSpacing=7;targetPerimeterSpacing=7;strokeColor=#B3B3B3;strokeWidth=1;align=right;verticalAlign=middle;opacity=60;endFill=1;exitX=1;exitY=0.5;exitDx=0;exitDy=0;" edge="1" parent="QL2ki2FNUlzPY13-rrIB-1" source="QL2ki2FNUlzPY13-rrIB-32">
          <mxGeometry width="50" height="50" relative="1" as="geometry">
            <mxPoint x="660" y="895" as="sourcePoint" />
            <mxPoint x="740" y="895" as="targetPoint" />
          </mxGeometry>
        </mxCell>
        <mxCell id="QL2ki2FNUlzPY13-rrIB-36" value="" style="endArrow=blockThin;html=1;fontFamily=Poppins;fontSource=https%3A%2F%2Ffonts.googleapis.com%2Fcss%3Ffamily%3DPoppins;startSize=10;endSize=14;sourcePerimeterSpacing=7;targetPerimeterSpacing=7;strokeColor=#B3B3B3;strokeWidth=1;align=right;verticalAlign=middle;opacity=60;endFill=1;exitX=1;exitY=0.5;exitDx=0;exitDy=0;" edge="1" parent="QL2ki2FNUlzPY13-rrIB-1" source="QL2ki2FNUlzPY13-rrIB-31">
          <mxGeometry width="50" height="50" relative="1" as="geometry">
            <mxPoint x="650" y="775" as="sourcePoint" />
            <mxPoint x="740" y="775" as="targetPoint" />
          </mxGeometry>
        </mxCell>
        <mxCell id="QL2ki2FNUlzPY13-rrIB-37" value="" style="endArrow=none;html=1;fontFamily=Poppins;fontSource=https%3A%2F%2Ffonts.googleapis.com%2Fcss%3Ffamily%3DPoppins;startSize=10;endSize=14;sourcePerimeterSpacing=7;targetPerimeterSpacing=7;strokeColor=#B3B3B3;strokeWidth=1;align=right;verticalAlign=middle;opacity=60;" edge="1" parent="QL2ki2FNUlzPY13-rrIB-1">
          <mxGeometry width="50" height="50" relative="1" as="geometry">
            <mxPoint x="90" y="1210" as="sourcePoint" />
            <mxPoint x="89.95000000000005" y="550" as="targetPoint" />
          </mxGeometry>
        </mxCell>
        <mxCell id="QL2ki2FNUlzPY13-rrIB-38" value="" style="endArrow=blockThin;html=1;fontFamily=Poppins;fontSource=https%3A%2F%2Ffonts.googleapis.com%2Fcss%3Ffamily%3DPoppins;startSize=10;endSize=14;sourcePerimeterSpacing=7;targetPerimeterSpacing=7;strokeColor=#B3B3B3;strokeWidth=1;align=right;verticalAlign=middle;opacity=60;entryX=1.002;entryY=0.597;entryDx=0;entryDy=0;entryPerimeter=0;endFill=1;" edge="1" parent="QL2ki2FNUlzPY13-rrIB-1" target="QL2ki2FNUlzPY13-rrIB-18">
          <mxGeometry width="50" height="50" relative="1" as="geometry">
            <mxPoint x="740" y="1210" as="sourcePoint" />
            <mxPoint x="570" y="1510" as="targetPoint" />
            <Array as="points">
              <mxPoint x="740" y="1220" />
            </Array>
          </mxGeometry>
        </mxCell>
        <mxCell id="QL2ki2FNUlzPY13-rrIB-39" value="&lt;span style=&quot;font-size: 10px&quot;&gt;Links not found :c&lt;/span&gt;" style="rounded=1;whiteSpace=wrap;html=1;shadow=0;glass=0;sketch=0;hachureGap=4;pointerEvents=0;fontFamily=Poppins;fontSource=https%3A%2F%2Ffonts.googleapis.com%2Fcss%3Ffamily%3DPoppins;strokeColor=none;fillColor=#FFFFFF;gradientDirection=north;gradientColor=#99CCFF;" vertex="1" parent="QL2ki2FNUlzPY13-rrIB-1">
          <mxGeometry x="40" y="530" width="100" height="40" as="geometry" />
        </mxCell>
        <mxCell id="QL2ki2FNUlzPY13-rrIB-40" value="" style="endArrow=none;html=1;fontFamily=Poppins;fontSource=https%3A%2F%2Ffonts.googleapis.com%2Fcss%3Ffamily%3DPoppins;startSize=10;endSize=14;sourcePerimeterSpacing=7;targetPerimeterSpacing=7;strokeColor=#B3B3B3;strokeWidth=1;align=right;verticalAlign=middle;opacity=60;" edge="1" parent="QL2ki2FNUlzPY13-rrIB-1">
          <mxGeometry width="50" height="50" relative="1" as="geometry">
            <mxPoint x="740" y="1210" as="sourcePoint" />
            <mxPoint x="740" y="340" as="targetPoint" />
          </mxGeometry>
        </mxCell>
        <mxCell id="QL2ki2FNUlzPY13-rrIB-41" value="&lt;font style=&quot;font-size: 9px&quot;&gt;yes&lt;/font&gt;" style="endArrow=blockThin;html=1;startSize=14;endSize=14;sourcePerimeterSpacing=8;targetPerimeterSpacing=8;strokeColor=#B3B3B3;rounded=1;strokeWidth=1;endFill=1;opacity=60;fontFamily=Poppins;fontSource=https%3A%2F%2Ffonts.googleapis.com%2Fcss%3Ffamily%3DPoppins;verticalAlign=middle;entryX=1;entryY=0.5;entryDx=0;entryDy=0;exitX=0.021;exitY=0.518;exitDx=0;exitDy=0;exitPerimeter=0;" edge="1" parent="QL2ki2FNUlzPY13-rrIB-1" target="QL2ki2FNUlzPY13-rrIB-39">
          <mxGeometry x="-0.2" width="50" height="50" relative="1" as="geometry">
            <mxPoint x="210.25000000000023" y="550.6300000000001" as="sourcePoint" />
            <mxPoint x="144.61" y="549.37" as="targetPoint" />
            <mxPoint as="offset" />
          </mxGeometry>
        </mxCell>
        <mxCell id="QL2ki2FNUlzPY13-rrIB-42" value="" style="endArrow=blockThin;html=1;startSize=14;endSize=14;sourcePerimeterSpacing=8;targetPerimeterSpacing=8;strokeColor=#B3B3B3;rounded=1;strokeWidth=1;endFill=1;opacity=60;entryX=0.484;entryY=-0.027;entryDx=0;entryDy=0;entryPerimeter=0;" edge="1" parent="QL2ki2FNUlzPY13-rrIB-1" target="QL2ki2FNUlzPY13-rrIB-18">
          <mxGeometry width="50" height="50" relative="1" as="geometry">
            <mxPoint x="415.9999999999998" y="1140" as="sourcePoint" />
            <mxPoint x="416" y="1190" as="targetPoint" />
          </mxGeometry>
        </mxCell>
        <mxCell id="QL2ki2FNUlzPY13-rrIB-43" value="" style="endArrow=blockThin;html=1;fontFamily=Poppins;fontSource=https%3A%2F%2Ffonts.googleapis.com%2Fcss%3Ffamily%3DPoppins;startSize=10;endSize=14;sourcePerimeterSpacing=7;targetPerimeterSpacing=7;strokeColor=#B3B3B3;strokeWidth=1;align=right;verticalAlign=middle;opacity=60;entryX=0;entryY=0.61;entryDx=0;entryDy=0;entryPerimeter=0;endFill=1;" edge="1" parent="QL2ki2FNUlzPY13-rrIB-1" target="QL2ki2FNUlzPY13-rrIB-18">
          <mxGeometry width="50" height="50" relative="1" as="geometry">
            <mxPoint x="90" y="1210" as="sourcePoint" />
            <mxPoint x="60" y="1217.9099999999999" as="targetPoint" />
            <Array as="points">
              <mxPoint x="90" y="1218" />
            </Array>
          </mxGeometry>
        </mxCell>
        <mxCell id="QL2ki2FNUlzPY13-rrIB-44" value="&lt;font style=&quot;font-size: 9px&quot;&gt;no&lt;/font&gt;" style="endArrow=blockThin;html=1;startSize=14;endSize=14;sourcePerimeterSpacing=8;targetPerimeterSpacing=8;strokeColor=#B3B3B3;rounded=1;strokeWidth=1;endFill=1;opacity=60;fontFamily=Poppins;fontSource=https%3A%2F%2Ffonts.googleapis.com%2Fcss%3Ffamily%3DPoppins;verticalAlign=middle;exitX=1;exitY=0.5;exitDx=0;exitDy=0;" edge="1" parent="QL2ki2FNUlzPY13-rrIB-1">
          <mxGeometry x="-0.1999" width="50" height="50" relative="1" as="geometry">
            <mxPoint x="462.5" y="894.2600000000002" as="sourcePoint" />
            <mxPoint x="538" y="894" as="targetPoint" />
            <mxPoint as="offset" />
            <Array as="points" />
          </mxGeometry>
        </mxCell>
        <mxCell id="QL2ki2FNUlzPY13-rrIB-45" value="&lt;font face=&quot;Poppins&quot; style=&quot;font-size: 9px&quot;&gt;Import api functions and&lt;br&gt;execute MdLinks&amp;nbsp; function&lt;br&gt;(path, options)&lt;br&gt;&lt;/font&gt;" style="shape=parallelogram;perimeter=parallelogramPerimeter;whiteSpace=wrap;html=1;fixedSize=1;shadow=0;glass=1;sketch=0;hachureGap=4;pointerEvents=0;fillColor=#F5E3FF;strokeColor=none;rounded=1;arcSize=22;align=center;gradientColor=#ffffff;" vertex="1" parent="QL2ki2FNUlzPY13-rrIB-1">
          <mxGeometry x="340" y="3" width="150" height="70" as="geometry" />
        </mxCell>
        <mxCell id="QL2ki2FNUlzPY13-rrIB-46" value="" style="endArrow=blockThin;html=1;startSize=14;endSize=14;sourcePerimeterSpacing=8;targetPerimeterSpacing=8;strokeColor=#B3B3B3;rounded=1;strokeWidth=1;endFill=1;opacity=60;" edge="1" parent="QL2ki2FNUlzPY13-rrIB-1">
          <mxGeometry width="50" height="50" relative="1" as="geometry">
            <mxPoint x="416.1099999999999" y="-37" as="sourcePoint" />
            <mxPoint x="416.1099999999999" y="3" as="targetPoint" />
          </mxGeometry>
        </mxCell>
        <mxCell id="QL2ki2FNUlzPY13-rrIB-47" value="&lt;font face=&quot;Poppins&quot; data-font-src=&quot;https://fonts.googleapis.com/css?family=Poppins&quot; style=&quot;font-size: 12px&quot; color=&quot;#67ab9f&quot;&gt;@mysticBel&lt;/font&gt;" style="text;html=1;resizable=0;autosize=1;align=center;verticalAlign=middle;points=[];fillColor=none;strokeColor=none;rounded=0;fontSize=9;" vertex="1" parent="QL2ki2FNUlzPY13-rrIB-1">
          <mxGeometry x="658" y="1330" width="80" height="15" as="geometry" />
        </mxCell>
        <mxCell id="QL2ki2FNUlzPY13-rrIB-48" value="&lt;b&gt;&lt;font face=&quot;Poppins&quot; data-font-src=&quot;https://fonts.googleapis.com/css?family=Poppins&quot; style=&quot;font-size: 32px&quot; color=&quot;#7ea6e0&quot;&gt;API&amp;nbsp; Flowchart&amp;nbsp;&lt;/font&gt;&lt;/b&gt;" style="text;html=1;resizable=0;autosize=1;align=center;verticalAlign=middle;points=[];fillColor=none;strokeColor=none;rounded=0;fontSize=9;" vertex="1" parent="QL2ki2FNUlzPY13-rrIB-1">
          <mxGeometry x="299.75" y="-150" width="239" height="24" as="geometry" />
        </mxCell>
        <mxCell id="QL2ki2FNUlzPY13-rrIB-49" value="&lt;font style=&quot;font-size: 10px&quot;&gt;Links not found :c&lt;/font&gt;" style="rounded=1;whiteSpace=wrap;html=1;shadow=0;glass=0;sketch=0;hachureGap=4;pointerEvents=0;fontFamily=Poppins;fontSource=https%3A%2F%2Ffonts.googleapis.com%2Fcss%3Ffamily%3DPoppins;strokeColor=none;fillColor=#FFFFFF;gradientDirection=north;gradientColor=#99CCFF;" vertex="1" parent="QL2ki2FNUlzPY13-rrIB-1">
          <mxGeometry x="540" y="635" width="110" height="40" as="geometry" />
        </mxCell>
        <mxCell id="QL2ki2FNUlzPY13-rrIB-50" value="" style="endArrow=blockThin;html=1;fontFamily=Poppins;fontSource=https%3A%2F%2Ffonts.googleapis.com%2Fcss%3Ffamily%3DPoppins;startSize=10;endSize=14;sourcePerimeterSpacing=7;targetPerimeterSpacing=7;strokeColor=#B3B3B3;strokeWidth=1;align=right;verticalAlign=middle;opacity=60;endFill=1;exitX=1;exitY=0.5;exitDx=0;exitDy=0;" edge="1" parent="QL2ki2FNUlzPY13-rrIB-1">
          <mxGeometry width="50" height="50" relative="1" as="geometry">
            <mxPoint x="650" y="654.8" as="sourcePoint" />
            <mxPoint x="740" y="654.8" as="targetPoint" />
          </mxGeometry>
        </mxCell>
      </root>
    </mxGraphModel>
  </diagram>
</mxfile>
